<svg id="svg" version="1.1" xmlns="http://www.w3.org/2000/svg" xmlns:xlink="http://www.w3.org/1999/xlink" width="400" height="400" viewBox="0, 0, 400,400"><g id="svgg"><path id="path0" d="M162.000 120.200 C 162.000 120.530,161.812 120.800,161.583 120.800 C 161.320 120.800,161.209 121.942,161.283 123.900 L 161.400 127.000 164.400 127.259 C 167.243 127.505,171.222 127.850,182.200 128.804 C 184.840 129.033,189.070 129.395,191.600 129.607 C 201.671 130.454,205.989 130.824,210.200 131.197 C 212.620 131.412,216.355 131.705,218.500 131.847 C 222.481 132.112,222.775 132.229,221.900 133.188 C 221.625 133.490,221.919 133.346,222.554 132.868 C 223.772 131.951,225.953 131.713,226.660 132.420 C 226.892 132.652,228.503 132.907,230.240 132.988 C 231.978 133.069,235.560 133.326,238.200 133.559 C 248.513 134.471,252.724 134.830,255.800 135.059 C 259.664 135.347,260.172 135.666,259.809 137.581 C 259.661 138.362,259.376 141.070,259.176 143.600 C 258.809 148.230,258.272 154.636,257.600 162.400 C 257.400 164.710,257.046 168.850,256.812 171.600 C 256.192 178.916,255.616 185.608,255.176 190.600 C 254.963 193.020,254.684 196.800,254.556 199.000 L 254.324 203.000 255.525 203.701 C 256.862 204.481,259.200 207.751,259.200 208.840 C 259.200 209.587,260.208 210.800,260.829 210.800 C 261.033 210.800,261.200 209.360,261.200 207.600 C 261.200 205.733,261.367 204.400,261.600 204.400 C 261.820 204.400,262.000 203.950,262.000 203.400 C 262.000 202.850,261.820 202.400,261.600 202.400 C 261.380 202.400,261.200 202.209,261.200 201.976 C 261.200 201.743,261.380 201.664,261.600 201.800 C 261.856 201.958,262.000 200.671,262.000 198.224 C 262.000 195.941,262.161 194.400,262.400 194.400 C 262.977 194.400,262.893 192.910,262.300 192.633 C 261.900 192.447,261.900 192.353,262.300 192.167 C 262.645 192.006,262.800 190.829,262.800 188.367 C 262.800 186.256,262.963 184.800,263.200 184.800 C 263.774 184.800,263.694 183.711,263.100 183.433 C 262.700 183.247,262.700 183.153,263.100 182.967 C 263.438 182.809,263.600 181.709,263.600 179.567 C 263.600 177.722,263.767 176.400,264.000 176.400 C 264.220 176.400,264.400 175.950,264.400 175.400 C 264.400 174.850,264.220 174.400,264.000 174.400 C 263.780 174.400,263.600 174.209,263.600 173.976 C 263.600 173.743,263.780 173.664,264.000 173.800 C 264.256 173.958,264.400 172.671,264.400 170.224 C 264.400 167.941,264.561 166.400,264.800 166.400 C 265.377 166.400,265.293 164.910,264.700 164.633 C 264.300 164.447,264.300 164.353,264.700 164.167 C 265.045 164.006,265.200 162.829,265.200 160.367 C 265.200 158.256,265.363 156.800,265.600 156.800 C 266.174 156.800,266.094 155.711,265.500 155.433 C 265.100 155.247,265.100 155.153,265.500 154.967 C 265.838 154.809,266.000 153.709,266.000 151.567 C 266.000 149.722,266.167 148.400,266.400 148.400 C 266.979 148.400,266.892 146.510,266.300 146.233 C 265.900 146.047,265.900 145.953,266.300 145.767 C 266.645 145.606,266.800 144.429,266.800 141.967 C 266.800 139.856,266.963 138.400,267.200 138.400 C 267.420 138.400,267.600 138.029,267.600 137.576 C 267.600 137.123,267.420 136.864,267.200 137.000 C 266.980 137.136,266.800 136.967,266.800 136.624 C 266.800 136.281,266.980 136.000,267.200 136.000 C 267.439 136.000,267.600 134.467,267.600 132.200 L 267.600 128.400 265.800 128.400 C 264.810 128.400,264.000 128.220,264.000 128.000 C 264.000 127.759,262.333 127.600,259.800 127.600 C 257.490 127.600,255.600 127.435,255.600 127.233 C 255.600 127.030,253.485 126.849,250.900 126.829 C 248.183 126.808,246.144 126.626,246.067 126.397 C 245.874 125.825,244.104 125.908,243.865 126.500 C 243.704 126.900,243.657 126.900,243.632 126.500 C 243.609 126.137,242.556 126.000,239.800 126.000 C 237.533 126.000,236.000 125.839,236.000 125.600 C 236.000 125.023,234.510 125.107,234.233 125.700 C 234.047 126.100,233.953 126.100,233.767 125.700 C 233.605 125.354,232.424 125.200,229.943 125.200 C 227.651 125.200,226.442 125.055,226.600 124.800 C 226.736 124.580,226.492 124.400,226.057 124.400 C 225.622 124.400,225.162 124.625,225.033 124.900 C 224.847 125.300,224.753 125.300,224.567 124.900 C 224.409 124.562,223.309 124.400,221.167 124.400 C 219.322 124.400,218.000 124.233,218.000 124.000 C 218.000 123.780,217.550 123.600,217.000 123.600 C 216.450 123.600,216.000 123.780,216.000 124.000 C 216.000 124.220,215.809 124.400,215.576 124.400 C 215.343 124.400,215.264 124.220,215.400 124.000 C 215.558 123.744,214.271 123.600,211.824 123.600 C 209.541 123.600,208.000 123.439,208.000 123.200 C 208.000 122.623,206.510 122.707,206.233 123.300 C 206.047 123.700,205.953 123.700,205.767 123.300 C 205.606 122.955,204.429 122.800,201.967 122.800 C 199.856 122.800,198.400 122.637,198.400 122.400 C 198.400 121.826,197.311 121.906,197.033 122.500 C 196.847 122.900,196.753 122.900,196.567 122.500 C 196.409 122.162,195.309 122.000,193.167 122.000 C 191.322 122.000,190.000 121.833,190.000 121.600 C 190.000 121.380,189.550 121.200,189.000 121.200 C 188.450 121.200,188.000 121.380,188.000 121.600 C 188.000 121.820,187.809 122.000,187.576 122.000 C 187.343 122.000,187.264 121.820,187.400 121.600 C 187.558 121.344,186.271 121.200,183.824 121.200 C 181.541 121.200,180.000 121.039,180.000 120.800 C 180.000 120.580,179.629 120.400,179.176 120.400 C 178.723 120.400,178.464 120.580,178.600 120.800 C 178.736 121.020,178.567 121.200,178.224 121.200 C 177.881 121.200,177.600 121.020,177.600 120.800 C 177.600 120.563,176.133 120.400,174.000 120.400 C 171.867 120.400,170.400 120.237,170.400 120.000 C 170.400 119.780,170.130 119.600,169.800 119.600 C 169.470 119.600,169.200 119.780,169.200 120.000 C 169.200 120.220,168.930 120.400,168.600 120.400 C 168.270 120.400,168.000 120.220,168.000 120.000 C 168.000 119.769,166.733 119.600,165.000 119.600 C 162.600 119.600,162.000 119.720,162.000 120.200 M231.700 147.921 L 229.600 148.042 229.600 153.447 C 229.600 158.958,229.418 159.812,227.880 161.500 C 226.656 162.844,223.436 162.774,221.800 161.368 L 220.600 160.336 220.461 154.511 L 220.323 148.686 216.661 148.949 C 214.648 149.094,210.300 149.401,207.000 149.633 C 203.700 149.864,199.380 150.177,197.400 150.327 L 193.800 150.600 193.903 153.800 C 194.231 164.022,194.835 180.097,195.054 184.456 L 195.308 189.513 196.582 189.720 C 198.161 189.976,229.760 189.334,234.350 188.952 L 237.701 188.674 237.438 184.637 C 237.293 182.417,237.000 178.080,236.787 175.000 C 236.574 171.920,236.241 166.430,236.047 162.800 C 235.309 148.943,234.956 147.733,231.700 147.921 M224.500 148.301 L 221.600 148.435 221.600 153.942 C 221.600 158.855,221.684 159.540,222.382 160.289 C 224.469 162.529,227.747 161.402,228.200 158.289 C 228.565 155.779,228.267 148.273,227.800 148.216 C 227.580 148.189,226.095 148.228,224.500 148.301 M144.000 150.600 C 144.000 151.150,144.180 151.600,144.400 151.600 C 144.620 151.600,144.800 151.150,144.800 150.600 C 144.800 150.050,144.620 149.600,144.400 149.600 C 144.180 149.600,144.000 150.050,144.000 150.600 M143.200 182.800 C 143.200 183.240,143.380 183.600,143.600 183.600 C 143.820 183.600,144.000 183.240,144.000 182.800 C 144.000 182.360,143.820 182.000,143.600 182.000 C 143.380 182.000,143.200 182.360,143.200 182.800 M260.400 212.200 C 260.400 212.530,260.580 212.800,260.800 212.800 C 261.020 212.800,261.200 212.530,261.200 212.200 C 261.200 211.870,261.020 211.600,260.800 211.600 C 260.580 211.600,260.400 211.870,260.400 212.200 M142.400 215.000 C 142.400 215.550,142.580 216.000,142.800 216.000 C 143.020 216.000,143.200 215.550,143.200 215.000 C 143.200 214.450,143.020 214.000,142.800 214.000 C 142.580 214.000,142.400 214.450,142.400 215.000 M141.600 247.000 C 141.600 247.550,141.780 248.000,142.000 248.000 C 142.220 248.000,142.400 247.550,142.400 247.000 C 142.400 246.450,142.220 246.000,142.000 246.000 C 141.780 246.000,141.600 246.450,141.600 247.000 " stroke="none" fill="#f66e75" fill-rule="evenodd"></path><path id="path1" d="M243.967 138.158 C 243.875 138.245,238.805 138.380,232.700 138.458 L 221.600 138.600 221.600 143.300 L 221.600 148.000 224.783 148.000 L 227.966 148.000 228.083 144.904 C 228.260 140.214,229.600 140.024,229.600 144.689 L 229.600 147.837 231.500 147.618 C 232.968 147.450,233.490 147.196,233.795 146.500 C 234.037 145.948,234.540 145.600,235.095 145.600 C 236.069 145.600,236.332 146.298,235.482 146.624 C 234.778 146.894,235.315 154.543,236.787 165.200 C 236.985 166.630,237.349 169.420,237.597 171.400 C 237.846 173.380,238.218 176.350,238.424 178.000 C 238.631 179.650,238.969 182.440,239.177 184.200 C 239.384 185.960,239.682 188.462,239.839 189.760 L 240.124 192.121 233.962 191.831 C 205.303 190.482,195.119 189.854,194.959 189.425 C 194.493 188.176,193.338 150.966,193.752 150.549 C 194.020 150.280,198.133 149.835,204.000 149.442 C 209.390 149.080,215.195 148.675,216.900 148.541 L 220.000 148.297 220.001 143.448 L 220.002 138.600 217.501 138.726 C 208.636 139.172,154.028 140.193,153.274 139.927 C 152.765 139.747,148.760 139.600,144.374 139.600 L 136.400 139.600 136.400 144.376 C 136.400 147.129,136.231 149.258,136.000 149.400 C 135.747 149.557,135.600 154.404,135.600 162.624 C 135.600 171.008,135.458 175.600,135.200 175.600 C 134.942 175.600,134.800 180.125,134.800 188.376 C 134.800 196.463,134.653 201.244,134.400 201.400 C 134.147 201.557,134.000 206.404,134.000 214.624 C 134.000 223.008,133.858 227.600,133.600 227.600 C 133.342 227.600,133.200 232.125,133.200 240.376 C 133.200 248.463,133.053 253.244,132.800 253.400 C 132.551 253.554,132.400 257.315,132.400 263.357 L 132.400 273.066 153.686 273.090 C 168.861 273.108,175.014 273.242,175.119 273.558 C 175.200 273.801,175.712 274.000,176.257 274.000 C 176.815 274.000,177.139 273.826,177.000 273.600 C 176.840 273.342,178.463 273.200,181.576 273.200 C 185.955 273.200,186.400 273.134,186.400 272.480 C 186.400 271.738,187.115 270.800,187.680 270.800 C 187.856 270.800,188.000 271.160,188.000 271.600 C 188.000 272.040,187.820 272.400,187.600 272.400 C 187.380 272.400,187.200 272.580,187.200 272.801 C 187.200 273.065,197.977 273.200,218.889 273.195 C 250.297 273.188,252.800 273.093,252.800 271.902 C 252.800 271.397,253.921 271.565,254.113 272.100 C 254.239 272.450,254.518 272.360,255.046 271.797 C 255.461 271.356,256.295 270.740,256.900 270.430 C 257.505 270.119,258.000 269.575,258.000 269.221 C 258.000 268.866,258.360 268.317,258.800 268.000 C 259.270 267.661,259.600 266.965,259.600 266.312 C 259.600 265.700,259.780 265.200,260.000 265.200 C 260.262 265.200,260.400 256.533,260.400 240.000 C 260.400 223.467,260.262 214.800,260.000 214.800 C 259.780 214.800,259.600 214.290,259.600 213.667 C 259.600 212.284,259.244 211.866,258.554 212.438 C 257.924 212.961,257.200 212.582,257.200 211.730 C 257.200 211.297,257.452 211.173,258.024 211.322 C 259.964 211.830,259.232 208.126,256.876 205.512 C 255.238 203.695,252.044 202.013,250.200 201.998 C 247.876 201.978,247.986 203.042,247.989 180.647 C 247.991 161.169,247.950 159.962,247.295 160.165 C 246.913 160.284,246.330 160.206,246.000 159.991 C 245.204 159.472,246.245 158.708,247.300 159.036 C 248.011 159.257,248.434 140.396,247.757 138.633 C 247.537 138.058,244.476 137.675,243.967 138.158 M233.908 142.075 C 233.661 142.817,232.800 142.940,232.800 142.233 C 232.800 141.885,233.085 141.600,233.433 141.600 C 233.782 141.600,233.995 141.814,233.908 142.075 M231.600 143.600 C 231.600 143.820,231.330 144.000,231.000 144.000 C 230.670 144.000,230.400 143.820,230.400 143.600 C 230.400 143.380,230.670 143.200,231.000 143.200 C 231.330 143.200,231.600 143.380,231.600 143.600 M144.871 147.500 C 144.942 149.425,144.876 155.230,144.725 160.400 C 144.574 165.570,144.350 176.100,144.227 183.800 C 144.104 191.500,143.911 198.475,143.797 199.300 C 143.672 200.207,143.756 200.800,144.008 200.800 C 144.783 200.800,144.913 202.029,144.194 202.555 C 143.548 203.028,143.473 204.241,143.325 216.636 C 143.235 224.096,143.056 231.231,142.925 232.491 C 142.729 234.388,142.801 234.825,143.344 235.034 C 144.189 235.358,144.175 235.944,143.300 236.910 C 142.058 238.282,142.008 260.702,143.244 262.373 C 144.167 263.623,144.052 264.186,142.872 264.195 C 142.408 264.198,142.161 264.602,142.075 265.500 C 141.303 273.501,141.233 241.688,141.988 226.200 C 142.203 221.800,142.389 214.870,142.402 210.800 C 142.432 201.355,142.759 188.708,142.980 188.487 C 143.073 188.394,143.162 183.971,143.177 178.659 C 143.191 173.346,143.394 165.670,143.627 161.600 C 143.860 157.530,144.016 153.390,143.974 152.400 C 143.807 148.493,144.019 144.000,144.371 144.000 C 144.574 144.000,144.799 145.575,144.871 147.500 M247.200 144.600 C 247.200 144.930,247.020 145.200,246.800 145.200 C 246.580 145.200,246.400 144.930,246.400 144.600 C 246.400 144.270,246.580 144.000,246.800 144.000 C 247.020 144.000,247.200 144.270,247.200 144.600 M241.200 147.024 C 241.200 147.341,240.930 147.600,240.600 147.600 C 239.998 147.600,239.778 146.756,240.256 146.278 C 240.629 145.904,241.200 146.355,241.200 147.024 M238.559 150.236 C 238.852 151.000,238.492 151.704,237.972 151.383 C 237.496 151.089,237.484 149.600,237.957 149.600 C 238.154 149.600,238.424 149.886,238.559 150.236 M237.921 152.921 C 237.753 154.055,236.943 154.214,236.409 153.216 C 235.841 152.155,236.172 151.615,237.221 151.890 C 237.771 152.034,238.002 152.374,237.921 152.921 M164.912 153.800 C 164.802 154.304,162.800 154.581,162.800 154.093 C 162.800 153.475,163.335 153.162,164.184 153.283 C 164.633 153.347,164.961 153.580,164.912 153.800 M180.102 157.300 C 180.333 157.988,179.984 159.200,179.553 159.200 C 179.359 159.200,179.198 159.065,179.195 158.900 C 179.192 158.735,179.081 158.195,178.948 157.700 C 178.687 156.726,179.781 156.347,180.102 157.300 M159.600 158.187 C 159.600 158.545,159.365 158.685,159.000 158.545 C 158.670 158.418,158.400 158.154,158.400 157.957 C 158.400 157.761,158.670 157.600,159.000 157.600 C 159.330 157.600,159.600 157.864,159.600 158.187 M166.557 159.033 C 166.900 159.926,166.873 160.000,166.205 160.000 C 165.826 160.000,165.644 160.327,165.705 160.899 C 165.775 161.562,165.564 161.831,164.900 161.927 C 164.167 162.032,164.000 161.865,164.000 161.028 C 164.000 160.267,164.208 160.000,164.800 160.000 C 165.333 160.000,165.600 159.733,165.600 159.200 C 165.600 158.246,166.214 158.139,166.557 159.033 M170.400 158.800 C 170.400 159.020,170.130 159.200,169.800 159.200 C 169.470 159.200,169.200 159.020,169.200 158.800 C 169.200 158.580,169.470 158.400,169.800 158.400 C 170.130 158.400,170.400 158.580,170.400 158.800 M154.000 162.000 C 154.000 162.220,153.730 162.400,153.400 162.400 C 153.070 162.400,152.800 162.220,152.800 162.000 C 152.800 161.780,153.070 161.600,153.400 161.600 C 153.730 161.600,154.000 161.780,154.000 162.000 M242.387 162.900 C 242.373 164.388,241.470 165.814,240.803 165.402 C 240.524 165.230,240.456 164.644,240.623 163.862 C 241.136 161.458,242.408 160.765,242.387 162.900 M155.400 166.400 C 155.400 166.693,155.175 167.008,154.900 167.100 C 154.603 167.199,154.400 166.916,154.400 166.400 C 154.400 165.884,154.603 165.601,154.900 165.700 C 155.175 165.792,155.400 166.107,155.400 166.400 M165.200 167.600 C 165.200 167.820,164.930 168.000,164.600 168.000 C 164.270 168.000,164.000 167.820,164.000 167.600 C 164.000 167.380,164.270 167.200,164.600 167.200 C 164.930 167.200,165.200 167.380,165.200 167.600 M175.600 168.400 C 175.600 168.620,175.240 168.800,174.800 168.800 C 174.360 168.800,174.000 168.620,174.000 168.400 C 174.000 168.180,174.360 168.000,174.800 168.000 C 175.240 168.000,175.600 168.180,175.600 168.400 M175.402 173.604 C 175.689 174.068,175.281 175.603,174.873 175.594 C 173.950 175.573,173.537 174.865,173.973 174.051 C 174.465 173.131,175.006 172.962,175.402 173.604 M142.400 174.757 C 142.400 174.954,142.115 175.224,141.767 175.357 C 140.873 175.700,140.800 175.673,140.800 175.000 C 140.800 174.667,141.156 174.400,141.600 174.400 C 142.040 174.400,142.400 174.561,142.400 174.757 M180.920 177.736 C 181.252 178.601,180.494 179.546,180.037 178.836 C 179.649 178.234,179.879 177.200,180.400 177.200 C 180.573 177.200,180.807 177.441,180.920 177.736 M158.400 179.200 C 158.400 180.107,157.985 180.225,157.280 179.520 C 156.575 178.815,156.693 178.400,157.600 178.400 C 158.133 178.400,158.400 178.667,158.400 179.200 M247.113 179.538 C 247.228 179.882,247.035 180.027,246.579 179.938 C 246.187 179.862,245.786 179.558,245.687 179.262 C 245.572 178.918,245.765 178.773,246.221 178.862 C 246.613 178.938,247.014 179.242,247.113 179.538 M150.741 180.230 C 151.289 181.433,151.052 182.000,150.000 182.000 C 149.586 182.000,149.144 181.833,149.019 181.630 C 148.763 181.216,149.577 179.200,150.000 179.200 C 150.149 179.200,150.483 179.663,150.741 180.230 M154.720 181.280 C 155.498 182.058,155.278 182.400,154.000 182.400 C 153.340 182.400,152.800 182.256,152.800 182.080 C 152.800 181.706,153.650 180.800,154.000 180.800 C 154.132 180.800,154.456 181.016,154.720 181.280 M161.600 186.400 C 161.600 186.840,161.420 187.200,161.200 187.200 C 160.980 187.200,160.800 186.840,160.800 186.400 C 160.800 185.960,160.980 185.600,161.200 185.600 C 161.420 185.600,161.600 185.960,161.600 186.400 M155.200 188.551 C 155.200 189.999,154.138 190.712,153.280 189.840 C 152.639 189.188,152.655 189.104,153.544 188.374 C 154.789 187.354,155.200 187.398,155.200 188.551 M171.200 192.000 C 171.200 192.769,170.418 193.084,169.870 192.537 C 169.567 192.234,170.324 191.200,170.849 191.200 C 171.042 191.200,171.200 191.560,171.200 192.000 M149.838 192.061 C 150.107 192.496,149.021 193.600,148.324 193.600 C 147.835 193.600,147.936 192.624,148.480 192.080 C 149.082 191.478,149.474 191.472,149.838 192.061 M217.610 192.626 C 218.189 194.150,218.095 194.469,217.104 194.328 C 216.190 194.197,215.756 193.214,216.154 192.177 C 216.496 191.283,217.179 191.494,217.610 192.626 M186.400 194.520 C 186.400 194.806,186.184 195.256,185.920 195.520 C 185.284 196.156,184.400 196.132,184.400 195.480 C 184.400 195.194,184.616 194.744,184.880 194.480 C 185.516 193.844,186.400 193.868,186.400 194.520 M232.800 196.181 C 232.800 196.946,231.741 198.400,231.185 198.400 C 230.095 198.400,229.392 197.332,230.000 196.600 C 230.441 196.069,232.800 195.716,232.800 196.181 M242.400 196.400 C 242.400 196.620,242.130 196.800,241.800 196.800 C 241.470 196.800,241.200 196.620,241.200 196.400 C 241.200 196.180,241.470 196.000,241.800 196.000 C 242.130 196.000,242.400 196.180,242.400 196.400 M155.502 201.700 C 155.311 202.279,153.600 202.634,153.600 202.094 C 153.600 201.523,154.070 201.200,154.900 201.200 C 155.334 201.200,155.595 201.417,155.502 201.700 M232.338 203.776 C 232.413 204.166,232.278 204.682,232.038 204.922 C 231.384 205.576,230.660 204.671,230.994 203.618 C 231.308 202.629,232.134 202.725,232.338 203.776 M201.600 205.346 C 201.600 205.646,201.217 206.379,200.749 206.974 C 200.035 207.881,199.970 208.217,200.349 209.047 C 200.921 210.304,200.915 210.400,200.262 210.400 C 199.469 210.400,198.251 208.939,198.774 208.616 C 199.008 208.471,199.200 207.953,199.200 207.465 C 199.200 206.977,199.480 206.178,199.823 205.689 C 200.512 204.704,201.600 204.494,201.600 205.346 M195.416 208.027 C 195.785 208.622,195.358 208.946,194.592 208.652 C 194.238 208.517,194.061 208.224,194.198 208.003 C 194.522 207.478,195.084 207.489,195.416 208.027 M236.800 208.400 C 236.800 209.244,236.218 209.476,235.800 208.800 C 235.508 208.328,235.887 207.600,236.424 207.600 C 236.631 207.600,236.800 207.960,236.800 208.400 M248.800 209.000 C 248.800 209.330,248.620 209.600,248.400 209.600 C 248.180 209.600,248.000 209.330,248.000 209.000 C 248.000 208.670,248.180 208.400,248.400 208.400 C 248.620 208.400,248.800 208.670,248.800 209.000 M234.400 210.474 C 234.400 211.241,232.726 212.800,231.902 212.800 C 231.347 212.800,231.179 212.562,231.272 211.910 C 231.457 210.624,234.400 209.273,234.400 210.474 M254.400 235.800 C 254.400 252.733,254.263 261.600,254.000 261.600 C 253.737 261.600,253.600 252.733,253.600 235.800 C 253.600 218.867,253.737 210.000,254.000 210.000 C 254.263 210.000,254.400 218.867,254.400 235.800 M170.400 212.200 C 170.400 212.530,170.220 212.800,170.000 212.800 C 169.780 212.800,169.600 212.530,169.600 212.200 C 169.600 211.870,169.780 211.600,170.000 211.600 C 170.220 211.600,170.400 211.870,170.400 212.200 M174.400 214.800 C 174.400 215.020,174.130 215.200,173.800 215.200 C 173.470 215.200,173.200 215.020,173.200 214.800 C 173.200 214.580,173.470 214.400,173.800 214.400 C 174.130 214.400,174.400 214.580,174.400 214.800 M212.800 217.200 C 212.800 217.420,212.429 217.600,211.976 217.600 C 211.523 217.600,211.264 217.420,211.400 217.200 C 211.536 216.980,211.907 216.800,212.224 216.800 C 212.541 216.800,212.800 216.980,212.800 217.200 M242.600 217.600 C 242.600 217.893,242.375 218.208,242.100 218.300 C 241.803 218.399,241.600 218.116,241.600 217.600 C 241.600 217.084,241.803 216.801,242.100 216.900 C 242.375 216.992,242.600 217.307,242.600 217.600 M190.720 218.080 C 191.420 218.780,191.309 219.200,190.424 219.200 C 189.545 219.200,189.031 218.598,189.400 218.000 C 189.727 217.470,190.135 217.495,190.720 218.080 M149.600 219.800 C 149.600 220.130,149.420 220.400,149.200 220.400 C 148.980 220.400,148.800 220.130,148.800 219.800 C 148.800 219.470,148.980 219.200,149.200 219.200 C 149.420 219.200,149.600 219.470,149.600 219.800 M170.800 219.600 C 170.800 219.820,170.530 220.000,170.200 220.000 C 169.870 220.000,169.600 219.820,169.600 219.600 C 169.600 219.380,169.870 219.200,170.200 219.200 C 170.530 219.200,170.800 219.380,170.800 219.600 M227.200 221.400 C 227.200 221.730,227.020 222.000,226.800 222.000 C 226.580 222.000,226.400 221.730,226.400 221.400 C 226.400 221.070,226.580 220.800,226.800 220.800 C 227.020 220.800,227.200 221.070,227.200 221.400 M241.600 224.200 C 241.600 224.530,241.420 224.800,241.200 224.800 C 240.980 224.800,240.800 224.530,240.800 224.200 C 240.800 223.870,240.980 223.600,241.200 223.600 C 241.420 223.600,241.600 223.870,241.600 224.200 M200.800 224.829 C 200.800 225.402,200.585 225.617,200.105 225.525 C 199.062 225.324,198.946 224.000,199.971 224.000 C 200.543 224.000,200.800 224.257,200.800 224.829 M207.162 227.158 C 208.385 228.098,208.059 229.416,206.695 229.051 C 206.203 228.919,205.395 228.808,204.900 228.805 C 203.741 228.798,203.735 227.831,204.889 227.023 C 205.987 226.253,205.986 226.253,207.162 227.158 M246.729 227.867 C 246.535 228.870,245.600 229.008,245.600 228.033 C 245.600 227.542,245.858 227.200,246.229 227.200 C 246.602 227.200,246.806 227.472,246.729 227.867 M226.400 228.200 C 226.400 228.530,226.220 228.800,226.000 228.800 C 225.780 228.800,225.600 228.530,225.600 228.200 C 225.600 227.870,225.780 227.600,226.000 227.600 C 226.220 227.600,226.400 227.870,226.400 228.200 M211.269 230.262 C 212.085 231.000,212.257 232.400,211.531 232.400 C 210.780 232.400,209.600 231.141,209.600 230.338 C 209.600 229.422,210.305 229.390,211.269 230.262 M232.000 230.200 C 232.000 230.530,231.820 230.800,231.600 230.800 C 231.380 230.800,231.200 230.530,231.200 230.200 C 231.200 229.870,231.380 229.600,231.600 229.600 C 231.820 229.600,232.000 229.870,232.000 230.200 M158.000 230.439 C 158.000 230.740,158.755 230.791,160.402 230.600 C 167.894 229.730,172.075 233.779,172.153 241.979 C 172.225 249.569,168.626 253.527,161.400 253.802 L 158.200 253.924 158.085 257.343 C 157.974 260.620,158.011 260.789,158.985 261.427 C 161.184 262.868,160.362 263.200,154.600 263.200 C 148.848 263.200,148.017 262.867,150.200 261.437 L 151.200 260.782 151.200 247.639 L 151.200 234.497 149.981 233.992 C 148.105 233.215,148.651 232.376,151.600 231.502 C 157.069 229.881,158.000 229.726,158.000 230.439 M222.400 230.669 C 222.400 231.160,221.084 232.400,220.562 232.400 C 219.663 232.400,219.450 231.499,220.215 230.939 C 220.983 230.378,222.400 230.202,222.400 230.669 M158.441 233.350 C 158.121 233.736,158.017 236.585,158.092 242.850 L 158.200 251.800 160.142 251.924 C 163.930 252.165,164.931 250.225,164.954 242.600 C 164.970 237.450,164.896 236.867,164.035 235.341 C 162.716 233.003,159.638 231.908,158.441 233.350 M250.700 237.833 C 250.319 238.215,249.555 237.597,249.839 237.138 C 250.007 236.864,250.231 236.871,250.518 237.158 C 250.754 237.394,250.836 237.698,250.700 237.833 M180.800 238.576 C 180.800 239.688,180.124 240.284,179.532 239.692 C 179.268 239.428,179.312 239.009,179.663 238.447 C 180.364 237.326,180.800 237.375,180.800 238.576 M160.800 238.843 C 160.800 239.039,160.440 239.200,160.000 239.200 C 159.220 239.200,158.958 238.776,159.439 238.294 C 159.760 237.974,160.800 238.393,160.800 238.843 M186.800 240.200 C 186.800 240.530,186.530 240.800,186.200 240.800 C 185.870 240.800,185.600 240.530,185.600 240.200 C 185.600 239.870,185.870 239.600,186.200 239.600 C 186.530 239.600,186.800 239.870,186.800 240.200 M256.800 240.600 C 256.800 240.930,256.631 241.200,256.424 241.200 C 255.919 241.200,255.558 240.575,255.878 240.256 C 256.328 239.805,256.800 239.981,256.800 240.600 M223.600 240.967 C 223.600 241.059,223.491 241.419,223.357 241.767 C 223.014 242.661,222.400 242.554,222.400 241.600 C 222.400 241.156,222.667 240.800,223.000 240.800 C 223.330 240.800,223.600 240.875,223.600 240.967 M236.400 241.200 C 236.400 241.420,236.130 241.600,235.800 241.600 C 235.470 241.600,235.200 241.420,235.200 241.200 C 235.200 240.980,235.470 240.800,235.800 240.800 C 236.130 240.800,236.400 240.980,236.400 241.200 M144.400 242.600 C 144.816 243.101,144.758 243.200,144.049 243.200 C 143.561 243.200,143.200 242.945,143.200 242.600 C 143.200 242.270,143.358 242.000,143.551 242.000 C 143.744 242.000,144.126 242.270,144.400 242.600 M174.000 242.376 C 174.000 242.848,173.220 243.353,172.933 243.067 C 172.647 242.780,173.152 242.000,173.624 242.000 C 173.831 242.000,174.000 242.169,174.000 242.376 M218.400 246.576 C 218.400 247.358,217.625 247.785,217.120 247.280 C 216.894 247.054,216.831 246.674,216.978 246.435 C 217.371 245.800,218.400 245.903,218.400 246.576 M228.000 248.033 C 228.000 249.008,227.065 248.870,226.871 247.867 C 226.794 247.472,226.998 247.200,227.371 247.200 C 227.742 247.200,228.000 247.542,228.000 248.033 M176.800 251.400 C 176.800 251.730,176.620 252.000,176.400 252.000 C 176.180 252.000,176.000 251.730,176.000 251.400 C 176.000 251.070,176.180 250.800,176.400 250.800 C 176.620 250.800,176.800 251.070,176.800 251.400 M201.532 252.130 C 201.644 252.719,201.452 252.835,200.539 252.730 C 199.825 252.648,199.356 252.330,199.268 251.870 C 199.156 251.281,199.348 251.165,200.261 251.270 C 200.975 251.352,201.444 251.670,201.532 252.130 M181.994 252.300 C 181.991 252.685,181.818 253.268,181.611 253.597 C 181.068 254.455,180.243 253.524,180.587 252.440 C 180.909 251.425,182.002 251.316,181.994 252.300 M190.300 252.500 C 190.048 253.257,188.800 253.364,188.800 252.629 C 188.800 252.258,189.142 252.000,189.633 252.000 C 190.122 252.000,190.398 252.207,190.300 252.500 M207.600 254.881 C 207.600 255.410,206.294 257.600,205.978 257.600 C 205.692 257.600,204.800 255.759,204.800 255.168 C 204.800 254.667,206.440 254.044,207.100 254.295 C 207.375 254.400,207.600 254.664,207.600 254.881 M212.400 257.767 C 212.400 257.859,212.291 258.219,212.157 258.567 C 211.814 259.461,211.200 259.354,211.200 258.400 C 211.200 257.956,211.467 257.600,211.800 257.600 C 212.130 257.600,212.400 257.675,212.400 257.767 M227.579 261.640 C 227.355 262.058,226.818 262.400,226.386 262.400 C 225.433 262.400,225.396 262.088,226.238 261.158 C 227.092 260.214,228.140 260.591,227.579 261.640 M238.800 262.800 C 238.800 263.020,238.530 263.200,238.200 263.200 C 237.870 263.200,237.600 263.020,237.600 262.800 C 237.600 262.580,237.870 262.400,238.200 262.400 C 238.530 262.400,238.800 262.580,238.800 262.800 M209.600 265.800 C 209.600 266.130,209.420 266.400,209.200 266.400 C 208.980 266.400,208.800 266.130,208.800 265.800 C 208.800 265.470,208.980 265.200,209.200 265.200 C 209.420 265.200,209.600 265.470,209.600 265.800 M215.200 265.576 C 215.200 266.048,214.420 266.553,214.133 266.267 C 213.847 265.980,214.352 265.200,214.824 265.200 C 215.031 265.200,215.200 265.369,215.200 265.576 M149.600 268.600 C 149.600 268.930,149.420 269.200,149.200 269.200 C 148.980 269.200,148.800 268.930,148.800 268.600 C 148.800 268.270,148.980 268.000,149.200 268.000 C 149.420 268.000,149.600 268.270,149.600 268.600 M144.230 269.377 C 144.700 271.248,143.620 271.839,142.844 270.136 C 142.456 269.286,142.464 269.006,142.880 268.742 C 143.711 268.215,143.969 268.337,144.230 269.377 M156.967 268.643 C 158.052 269.059,157.087 270.800,155.771 270.800 C 155.077 270.800,155.017 269.543,155.680 268.880 C 156.241 268.319,156.162 268.334,156.967 268.643 M185.795 268.792 C 186.094 269.276,185.318 270.800,184.773 270.800 C 184.115 270.800,183.876 269.632,184.404 268.995 C 184.976 268.306,185.452 268.236,185.795 268.792 M201.961 271.353 C 202.318 271.783,202.269 271.965,201.743 272.166 C 200.950 272.471,200.190 271.863,200.578 271.235 C 200.941 270.648,201.409 270.688,201.961 271.353 M187.600 274.400 C 187.600 274.620,187.960 274.800,188.400 274.800 C 188.840 274.800,189.200 274.620,189.200 274.400 C 189.200 274.180,188.840 274.000,188.400 274.000 C 187.960 274.000,187.600 274.180,187.600 274.400 M216.400 278.400 C 216.400 278.620,216.670 278.800,217.000 278.800 C 217.330 278.800,217.600 278.620,217.600 278.400 C 217.600 278.180,217.330 278.000,217.000 278.000 C 216.670 278.000,216.400 278.180,216.400 278.400 M241.200 280.000 C 241.200 280.220,241.470 280.400,241.800 280.400 C 242.130 280.400,242.400 280.220,242.400 280.000 C 242.400 279.780,242.130 279.600,241.800 279.600 C 241.470 279.600,241.200 279.780,241.200 280.000 " stroke="none" fill="#2ccbb4" fill-rule="evenodd"></path><path id="path2" d="M163.300 82.598 C 162.689 83.292,162.598 90.000,163.200 90.000 C 163.420 90.000,163.600 90.540,163.600 91.200 C 163.600 91.860,163.780 92.400,164.000 92.400 C 164.220 92.400,164.400 92.760,164.400 93.200 C 164.400 93.640,164.580 94.000,164.800 94.000 C 165.020 94.000,165.200 94.275,165.200 94.611 C 165.200 95.642,168.660 98.800,169.789 98.800 L 170.800 98.800 170.800 93.600 C 170.800 90.400,170.646 88.400,170.400 88.400 C 170.180 88.400,170.000 87.860,170.000 87.200 C 170.000 86.540,169.820 86.000,169.600 86.000 C 169.380 86.000,169.200 85.706,169.200 85.347 C 169.200 84.988,168.873 84.403,168.472 84.047 C 168.072 83.691,167.628 83.085,167.485 82.700 C 167.158 81.820,164.052 81.744,163.300 82.598 M223.700 84.610 C 223.205 85.139,222.800 85.848,222.800 86.186 C 222.800 86.524,222.620 86.800,222.400 86.800 C 221.754 86.800,221.905 91.963,222.571 92.629 C 223.463 93.520,225.200 93.369,225.200 92.400 C 225.200 91.960,225.380 91.600,225.600 91.600 C 225.820 91.600,226.000 91.060,226.000 90.400 C 226.000 89.740,226.180 89.200,226.400 89.200 C 226.620 89.200,226.800 88.197,226.800 86.971 C 226.800 83.682,225.497 82.690,223.700 84.610 M250.900 94.220 C 249.965 95.189,249.200 96.256,249.200 96.591 C 249.200 96.926,249.020 97.200,248.800 97.200 C 248.580 97.200,248.400 98.100,248.400 99.200 C 248.400 101.072,248.465 101.200,249.411 101.200 C 250.488 101.200,254.000 98.062,254.000 97.099 C 254.000 96.812,254.360 96.317,254.800 96.000 C 255.357 95.598,255.600 94.965,255.600 93.912 C 255.600 91.579,253.303 91.729,250.900 94.220 M133.200 98.400 C 133.200 99.060,133.020 99.600,132.800 99.600 C 132.580 99.600,132.400 99.960,132.400 100.400 C 132.400 100.840,132.580 101.200,132.800 101.200 C 133.020 101.200,133.200 101.920,133.200 102.800 C 133.200 103.680,133.380 104.400,133.600 104.400 C 133.820 104.400,134.000 104.900,134.000 105.512 C 134.000 106.165,134.330 106.861,134.800 107.200 C 135.240 107.517,135.600 108.057,135.600 108.400 C 135.600 108.743,135.960 109.283,136.400 109.600 C 136.840 109.917,137.200 110.415,137.200 110.706 C 137.200 111.393,139.007 113.200,139.694 113.200 C 139.985 113.200,140.483 113.560,140.800 114.000 C 141.139 114.470,141.835 114.800,142.488 114.800 L 143.600 114.800 143.600 111.600 C 143.600 109.733,143.433 108.400,143.200 108.400 C 142.980 108.400,142.800 107.680,142.800 106.800 C 142.800 105.920,142.620 105.200,142.400 105.200 C 142.180 105.200,142.000 104.840,142.000 104.400 C 142.000 103.960,141.820 103.600,141.600 103.600 C 141.380 103.600,141.200 103.240,141.200 102.800 C 141.200 102.360,141.020 102.000,140.800 102.000 C 140.580 102.000,140.400 101.680,140.400 101.288 C 140.400 100.897,140.040 100.317,139.600 100.000 C 139.160 99.683,138.800 99.103,138.800 98.712 C 138.800 98.267,138.500 98.000,138.000 98.000 C 137.560 98.000,137.200 97.820,137.200 97.600 C 137.200 97.380,136.300 97.200,135.200 97.200 C 133.244 97.200,133.200 97.227,133.200 98.400 M278.000 109.600 C 278.000 109.820,277.640 110.000,277.200 110.000 C 276.760 110.000,276.400 110.180,276.400 110.400 C 276.400 110.620,276.127 110.800,275.793 110.800 C 275.001 110.800,270.000 115.801,270.000 116.593 C 270.000 116.927,269.820 117.200,269.600 117.200 C 269.380 117.200,269.200 117.560,269.200 118.000 C 269.200 118.440,269.020 118.800,268.800 118.800 C 268.580 118.800,268.400 119.520,268.400 120.400 L 268.400 122.000 270.000 122.000 C 270.880 122.000,271.600 121.820,271.600 121.600 C 271.600 121.380,272.320 121.200,273.200 121.200 C 274.080 121.200,274.800 121.020,274.800 120.800 C 274.800 120.580,275.340 120.400,276.000 120.400 C 276.660 120.400,277.200 120.220,277.200 120.000 C 277.200 119.780,277.473 119.600,277.807 119.600 C 279.597 119.600,283.600 114.491,283.600 112.207 C 283.600 110.267,283.503 110.000,282.800 110.000 C 282.360 110.000,282.000 109.820,282.000 109.600 C 282.000 109.380,281.100 109.200,280.000 109.200 C 278.900 109.200,278.000 109.380,278.000 109.600 M111.600 116.000 C 111.600 116.220,111.317 116.400,110.971 116.400 C 109.846 116.400,109.200 117.484,109.200 119.371 C 109.200 120.377,109.380 121.200,109.600 121.200 C 109.820 121.200,110.000 121.700,110.000 122.312 C 110.000 122.965,110.330 123.661,110.800 124.000 C 111.240 124.317,111.600 124.813,111.600 125.102 C 111.600 125.390,112.224 126.251,112.987 127.013 C 113.749 127.776,114.610 128.400,114.898 128.400 C 115.187 128.400,115.683 128.760,116.000 129.200 C 116.317 129.640,116.897 130.000,117.288 130.000 C 117.680 130.000,118.000 130.180,118.000 130.400 C 118.000 130.620,118.360 130.800,118.800 130.800 C 119.240 130.800,119.600 130.980,119.600 131.200 C 119.600 131.420,120.140 131.600,120.800 131.600 C 121.933 131.600,122.000 131.511,122.000 130.000 C 122.000 129.120,121.820 128.400,121.600 128.400 C 121.380 128.400,121.200 127.680,121.200 126.800 C 121.200 125.920,121.020 125.200,120.800 125.200 C 120.580 125.200,120.400 124.660,120.400 124.000 C 120.400 123.340,120.220 122.800,120.000 122.800 C 119.780 122.800,119.600 122.480,119.600 122.088 C 119.600 121.697,119.240 121.117,118.800 120.800 C 118.360 120.483,118.000 119.985,118.000 119.694 C 118.000 119.402,117.558 118.722,117.018 118.182 C 116.478 117.642,115.798 117.200,115.506 117.200 C 115.215 117.200,114.717 116.840,114.400 116.400 C 113.806 115.576,111.600 115.261,111.600 116.000 M222.605 132.867 C 220.170 134.783,219.701 138.722,220.295 152.288 L 220.649 160.377 221.824 161.388 C 224.211 163.440,227.637 162.663,229.150 159.726 C 229.987 158.102,229.757 141.510,228.900 141.680 C 228.258 141.808,228.212 142.419,228.345 149.114 C 228.526 158.273,228.334 159.708,226.772 160.820 C 225.372 161.817,223.607 161.603,222.382 160.289 C 221.216 159.037,221.164 135.318,222.326 134.267 C 224.223 132.550,227.230 133.140,228.180 135.415 C 228.512 136.208,228.960 136.748,229.177 136.615 C 229.779 136.242,228.857 134.364,227.453 133.100 C 225.951 131.749,224.138 131.662,222.605 132.867 M298.000 132.800 C 298.000 133.020,297.460 133.200,296.800 133.200 C 296.140 133.200,295.600 133.380,295.600 133.600 C 295.600 133.820,295.060 134.000,294.400 134.000 C 293.740 134.000,293.200 134.180,293.200 134.400 C 293.200 134.620,292.880 134.800,292.488 134.800 C 292.097 134.800,291.517 135.160,291.200 135.600 C 290.883 136.040,290.389 136.400,290.103 136.400 C 288.866 136.400,285.200 140.731,285.200 142.191 L 285.200 143.600 288.400 143.600 C 290.267 143.600,291.600 143.433,291.600 143.200 C 291.600 142.980,292.140 142.800,292.800 142.800 C 293.460 142.800,294.000 142.620,294.000 142.400 C 294.000 142.180,294.540 142.000,295.200 142.000 C 295.860 142.000,296.400 141.820,296.400 141.600 C 296.400 141.380,296.760 141.200,297.200 141.200 C 297.640 141.200,298.000 141.020,298.000 140.800 C 298.000 140.580,298.275 140.400,298.611 140.400 C 300.095 140.400,302.800 136.920,302.800 135.011 C 302.800 133.265,302.757 133.200,301.600 133.200 C 300.940 133.200,300.400 133.020,300.400 132.800 C 300.400 132.580,299.860 132.400,299.200 132.400 C 298.540 132.400,298.000 132.580,298.000 132.800 M92.400 145.600 C 92.400 146.260,92.580 146.800,92.800 146.800 C 93.020 146.800,93.200 147.078,93.200 147.418 C 93.200 148.218,94.982 150.000,95.782 150.000 C 96.122 150.000,96.400 150.180,96.400 150.400 C 96.400 150.620,97.120 150.800,98.000 150.800 C 98.880 150.800,99.600 150.980,99.600 151.200 C 99.600 151.420,99.960 151.600,100.400 151.600 C 101.008 151.600,101.200 151.333,101.200 150.488 C 101.200 149.835,100.870 149.139,100.400 148.800 C 99.960 148.483,99.600 147.980,99.600 147.683 C 99.600 146.951,98.600 146.000,97.829 146.000 C 97.483 146.000,97.200 145.820,97.200 145.600 C 97.200 145.380,96.840 145.200,96.400 145.200 C 95.960 145.200,95.600 145.020,95.600 144.800 C 95.600 144.580,94.880 144.400,94.000 144.400 C 92.489 144.400,92.400 144.467,92.400 145.600 M236.164 165.800 C 236.311 168.000,236.598 172.230,236.803 175.200 C 237.008 178.170,237.293 182.419,237.438 184.643 L 237.701 188.685 234.751 188.946 C 233.128 189.089,225.365 189.321,217.500 189.462 C 202.482 189.729,199.489 190.103,208.700 190.559 C 211.725 190.709,217.440 191.002,221.400 191.211 C 225.360 191.419,231.193 191.708,234.362 191.852 L 240.124 192.115 239.839 189.757 C 239.682 188.461,239.384 185.960,239.177 184.200 C 238.969 182.440,238.631 179.650,238.424 178.000 C 238.218 176.350,237.846 173.380,237.597 171.400 C 237.349 169.420,237.017 166.594,236.859 165.120 C 236.404 160.866,235.871 161.388,236.164 165.800 M309.200 163.200 C 309.200 163.420,308.840 163.600,308.400 163.600 C 307.960 163.600,307.600 163.780,307.600 164.000 C 307.600 164.220,307.240 164.400,306.800 164.400 C 306.360 164.400,306.000 164.580,306.000 164.800 C 306.000 165.020,305.680 165.200,305.288 165.200 C 304.897 165.200,304.317 165.560,304.000 166.000 C 303.683 166.440,303.185 166.800,302.894 166.800 C 301.375 166.800,299.999 169.256,300.971 170.229 C 301.657 170.914,310.800 171.074,310.800 170.400 C 310.800 170.180,311.520 170.000,312.400 170.000 C 313.280 170.000,314.000 169.820,314.000 169.600 C 314.000 169.380,314.278 169.200,314.618 169.200 C 315.317 169.200,317.200 167.459,317.200 166.813 C 317.200 166.580,317.416 166.043,317.681 165.619 C 318.900 163.668,317.500 162.800,313.132 162.800 C 310.777 162.800,309.200 162.960,309.200 163.200 M83.600 174.218 C 83.600 175.893,85.257 177.200,87.382 177.200 C 88.382 177.200,89.200 177.380,89.200 177.600 C 89.200 177.820,89.560 178.000,90.000 178.000 C 90.440 178.000,90.800 177.820,90.800 177.600 C 90.800 177.380,91.340 177.200,92.000 177.200 C 93.022 177.200,93.200 177.048,93.200 176.171 C 93.200 174.859,92.341 174.000,91.029 174.000 C 90.463 174.000,90.000 173.820,90.000 173.600 C 90.000 173.367,88.667 173.200,86.800 173.200 C 83.638 173.200,83.600 173.212,83.600 174.218 M253.600 235.800 C 253.600 252.733,253.737 261.600,254.000 261.600 C 254.263 261.600,254.400 252.733,254.400 235.800 C 254.400 218.867,254.263 210.000,254.000 210.000 C 253.737 210.000,253.600 218.867,253.600 235.800 M306.500 222.598 C 305.595 223.626,306.364 225.200,307.771 225.200 C 308.117 225.200,308.400 225.380,308.400 225.600 C 308.400 225.820,308.760 226.000,309.200 226.000 C 309.640 226.000,310.000 226.180,310.000 226.400 C 310.000 226.629,311.200 226.800,312.800 226.800 L 315.600 226.800 315.600 225.371 C 315.600 223.859,314.871 222.800,313.829 222.800 C 313.483 222.800,313.200 222.620,313.200 222.400 C 313.200 221.746,307.092 221.926,306.500 222.598 M87.600 229.600 C 87.600 229.820,87.060 230.000,86.400 230.000 C 85.740 230.000,85.200 230.180,85.200 230.400 C 85.200 230.620,84.922 230.800,84.582 230.800 C 82.584 230.800,81.086 235.143,82.571 236.629 C 83.244 237.301,89.200 237.455,89.200 236.800 C 89.200 236.580,89.740 236.400,90.400 236.400 C 91.060 236.400,91.600 236.220,91.600 236.000 C 91.600 235.780,91.960 235.600,92.400 235.600 C 92.840 235.600,93.200 235.420,93.200 235.200 C 93.200 234.980,93.560 234.800,94.000 234.800 C 94.440 234.800,94.800 234.620,94.800 234.400 C 94.800 234.180,95.076 234.000,95.413 234.000 C 96.421 234.000,98.800 231.340,98.800 230.213 L 98.800 229.200 93.200 229.200 C 89.733 229.200,87.600 229.352,87.600 229.600 M155.400 230.406 C 148.713 232.215,147.549 232.985,149.981 233.992 L 151.200 234.497 151.200 247.639 L 151.200 260.782 150.200 261.437 C 148.017 262.867,148.848 263.200,154.600 263.200 C 160.362 263.200,161.184 262.868,158.985 261.427 C 158.011 260.789,157.974 260.620,158.085 257.343 L 158.200 253.924 161.400 253.802 C 168.626 253.527,172.225 249.569,172.153 241.979 C 172.075 233.779,167.894 229.730,160.402 230.600 C 158.755 230.791,158.000 230.740,158.000 230.439 C 158.000 229.942,157.156 229.932,155.400 230.406 M162.131 233.241 C 164.307 234.233,164.973 236.441,164.954 242.600 C 164.931 250.225,163.930 252.165,160.142 251.924 L 158.200 251.800 158.092 242.850 C 157.966 232.360,158.324 231.507,162.131 233.241 M298.000 249.040 C 298.000 249.391,298.540 250.183,299.200 250.800 C 299.860 251.417,300.400 252.209,300.400 252.560 C 300.400 252.912,300.720 253.200,301.112 253.200 C 301.503 253.200,302.083 253.560,302.400 254.000 C 302.717 254.440,303.297 254.800,303.688 254.800 C 304.080 254.800,304.400 254.980,304.400 255.200 C 304.400 255.420,305.120 255.600,306.000 255.600 C 307.511 255.600,307.600 255.533,307.600 254.400 C 307.600 253.740,307.420 253.200,307.200 253.200 C 306.980 253.200,306.800 252.922,306.800 252.582 C 306.800 252.242,306.358 251.522,305.818 250.982 C 305.278 250.442,304.558 250.000,304.218 250.000 C 303.878 250.000,303.600 249.820,303.600 249.600 C 303.600 249.380,303.240 249.200,302.800 249.200 C 302.360 249.200,302.000 249.020,302.000 248.800 C 302.000 248.580,301.100 248.400,300.000 248.400 C 298.434 248.400,298.000 248.539,298.000 249.040 M107.600 256.800 C 107.600 257.020,106.880 257.200,106.000 257.200 C 105.120 257.200,104.400 257.380,104.400 257.600 C 104.400 257.820,104.040 258.000,103.600 258.000 C 103.160 258.000,102.800 258.180,102.800 258.400 C 102.800 258.620,102.480 258.800,102.088 258.800 C 101.697 258.800,101.117 259.160,100.800 259.600 C 100.483 260.040,99.985 260.400,99.694 260.400 C 97.773 260.400,96.327 264.784,97.771 266.229 C 98.437 266.895,103.600 267.046,103.600 266.400 C 103.600 266.180,104.140 266.000,104.800 266.000 C 105.460 266.000,106.000 265.820,106.000 265.600 C 106.000 265.380,106.320 265.200,106.712 265.200 C 107.103 265.200,107.683 264.840,108.000 264.400 C 108.317 263.960,108.810 263.600,109.096 263.600 C 110.089 263.600,114.800 258.486,114.800 257.407 C 114.800 256.405,114.780 256.400,111.200 256.400 C 109.067 256.400,107.600 256.563,107.600 256.800 M278.000 270.800 C 278.000 272.133,278.178 273.200,278.400 273.200 C 278.620 273.200,278.800 273.740,278.800 274.400 C 278.800 275.060,278.980 275.600,279.200 275.600 C 279.420 275.600,279.600 276.100,279.600 276.712 C 279.600 277.365,279.930 278.061,280.400 278.400 C 280.840 278.717,281.200 279.213,281.200 279.502 C 281.200 280.231,283.838 282.800,284.587 282.800 C 284.924 282.800,285.200 282.980,285.200 283.200 C 285.200 283.823,288.780 283.678,289.429 283.029 C 290.095 282.363,290.246 277.200,289.600 277.200 C 289.380 277.200,289.200 276.880,289.200 276.488 C 289.200 276.097,288.840 275.517,288.400 275.200 C 287.960 274.883,287.600 274.387,287.600 274.098 C 287.600 273.810,286.976 272.949,286.213 272.187 C 285.451 271.424,284.590 270.800,284.302 270.800 C 284.013 270.800,283.517 270.440,283.200 270.000 C 282.861 269.530,282.165 269.200,281.512 269.200 C 280.900 269.200,280.400 269.020,280.400 268.800 C 280.400 268.580,279.860 268.400,279.200 268.400 L 278.000 268.400 278.000 270.800 M252.643 272.233 C 252.509 272.581,252.400 274.201,252.400 275.833 L 252.400 278.800 251.200 278.800 C 250.540 278.800,250.000 278.620,250.000 278.400 C 250.000 278.150,247.600 278.000,243.600 278.000 C 239.600 278.000,237.200 277.850,237.200 277.600 C 237.200 277.351,234.933 277.200,231.200 277.200 C 227.467 277.200,225.200 277.049,225.200 276.800 C 225.200 276.549,222.725 276.400,218.576 276.400 C 214.263 276.400,212.039 276.261,212.200 276.000 C 212.361 275.740,210.263 275.600,206.200 275.600 C 202.137 275.600,200.039 275.460,200.200 275.200 C 200.361 274.940,198.204 274.800,194.024 274.800 C 190.008 274.800,187.600 274.650,187.600 274.400 C 187.600 274.151,185.278 274.000,181.433 274.000 C 178.028 274.000,175.207 273.835,175.133 273.631 C 174.989 273.232,145.756 272.715,143.900 273.078 C 141.141 273.618,143.337 274.000,149.200 274.000 C 153.200 274.000,155.600 274.150,155.600 274.400 C 155.600 274.649,157.867 274.800,161.600 274.800 C 165.333 274.800,167.600 274.951,167.600 275.200 C 167.600 275.450,170.000 275.600,174.000 275.600 C 178.000 275.600,180.400 275.750,180.400 276.000 C 180.400 276.249,182.667 276.400,186.400 276.400 C 190.133 276.400,192.400 276.551,192.400 276.800 C 192.400 277.051,194.875 277.200,199.024 277.200 C 203.337 277.200,205.561 277.339,205.400 277.600 C 205.239 277.860,207.329 278.000,211.376 278.000 C 215.259 278.000,217.600 278.150,217.600 278.400 C 217.600 278.649,219.933 278.800,223.800 278.800 C 227.667 278.800,230.000 278.951,230.000 279.200 C 230.000 279.449,232.333 279.600,236.200 279.600 C 240.067 279.600,242.400 279.751,242.400 280.000 C 242.400 280.248,244.600 280.400,248.200 280.400 L 254.000 280.400 254.000 276.000 C 254.000 271.723,253.437 270.162,252.643 272.233 M126.800 278.400 C 126.800 278.620,126.260 278.800,125.600 278.800 C 124.940 278.800,124.400 278.980,124.400 279.200 C 124.400 279.420,123.900 279.600,123.288 279.600 C 122.635 279.600,121.939 279.930,121.600 280.400 C 121.283 280.840,120.788 281.200,120.501 281.200 C 119.773 281.200,116.400 284.645,116.400 285.389 C 116.400 285.725,116.220 286.000,116.000 286.000 C 115.780 286.000,115.600 286.540,115.600 287.200 C 115.600 287.860,115.780 288.400,116.000 288.400 C 116.220 288.400,116.400 288.760,116.400 289.200 C 116.400 289.822,116.667 290.000,117.600 290.000 C 118.260 290.000,118.800 290.180,118.800 290.400 C 118.800 290.620,119.160 290.800,119.600 290.800 C 120.040 290.800,120.400 290.620,120.400 290.400 C 120.400 290.180,120.940 290.000,121.600 290.000 C 122.260 290.000,122.800 289.820,122.800 289.600 C 122.800 289.380,123.073 289.200,123.406 289.200 C 124.197 289.200,130.000 283.397,130.000 282.606 C 130.000 282.273,130.180 282.000,130.400 282.000 C 130.620 282.000,130.800 281.640,130.800 281.200 C 130.800 280.760,130.980 280.400,131.200 280.400 C 131.420 280.400,131.600 279.860,131.600 279.200 L 131.600 278.000 129.200 278.000 C 127.867 278.000,126.800 278.178,126.800 278.400 M256.400 288.800 C 256.400 290.933,256.563 292.400,256.800 292.400 C 257.020 292.400,257.200 292.940,257.200 293.600 C 257.200 294.260,257.380 294.800,257.600 294.800 C 257.820 294.800,258.000 295.340,258.000 296.000 C 258.000 296.660,258.180 297.200,258.400 297.200 C 258.620 297.200,258.800 297.488,258.800 297.840 C 258.800 298.191,259.340 298.983,260.000 299.600 C 260.660 300.217,261.200 301.009,261.200 301.360 C 261.200 301.733,261.534 302.000,262.000 302.000 C 262.440 302.000,262.800 302.180,262.800 302.400 C 262.800 303.014,265.582 302.875,266.229 302.229 C 266.895 301.563,267.046 296.400,266.400 296.400 C 266.180 296.400,266.000 295.860,266.000 295.200 C 266.000 294.540,265.820 294.000,265.600 294.000 C 265.380 294.000,265.200 293.640,265.200 293.200 C 265.200 292.760,265.020 292.400,264.800 292.400 C 264.580 292.400,264.400 292.112,264.400 291.760 C 264.400 291.409,263.860 290.617,263.200 290.000 C 262.540 289.383,262.000 288.668,262.000 288.411 C 262.000 287.775,260.981 286.800,260.317 286.800 C 260.020 286.800,259.517 286.440,259.200 286.000 C 258.861 285.530,258.165 285.200,257.512 285.200 L 256.400 285.200 256.400 288.800 M150.000 298.400 C 150.000 298.620,149.724 298.800,149.387 298.800 C 148.638 298.800,146.000 301.369,146.000 302.098 C 146.000 302.387,145.640 302.883,145.200 303.200 C 143.880 304.152,144.043 307.600,145.409 307.600 C 147.071 307.600,150.800 303.595,150.800 301.809 C 150.800 301.034,150.980 300.400,151.200 300.400 C 151.420 300.400,151.600 299.860,151.600 299.200 C 151.600 298.267,151.422 298.000,150.800 298.000 C 150.360 298.000,150.000 298.180,150.000 298.400 M229.200 306.400 C 229.200 310.133,229.351 312.400,229.600 312.400 C 229.820 312.400,230.000 312.760,230.000 313.200 C 230.000 313.640,230.180 314.000,230.400 314.000 C 230.620 314.000,230.800 314.291,230.800 314.646 C 230.800 316.859,234.679 318.557,236.218 317.018 C 237.252 315.985,237.737 310.800,236.800 310.800 C 236.580 310.800,236.400 310.260,236.400 309.600 C 236.400 308.940,236.220 308.400,236.000 308.400 C 235.780 308.400,235.600 307.900,235.600 307.288 C 235.600 306.635,235.270 305.939,234.800 305.600 C 234.360 305.283,234.000 304.788,234.000 304.501 C 234.000 303.773,230.555 300.400,229.811 300.400 C 229.290 300.400,229.200 301.287,229.200 306.400 M174.900 307.010 C 174.405 307.539,174.000 308.248,174.000 308.586 C 174.000 308.924,173.820 309.200,173.600 309.200 C 173.367 309.200,173.200 310.533,173.200 312.400 L 173.200 315.600 174.800 315.600 C 176.133 315.600,176.400 315.467,176.400 314.800 C 176.400 314.360,176.580 314.000,176.800 314.000 C 177.040 314.000,177.200 312.400,177.200 310.000 C 177.200 305.569,176.771 305.011,174.900 307.010 " stroke="none" fill="#221413" fill-rule="evenodd"></path><path id="path3" d="M154.000 128.424 C 154.000 129.937,153.850 130.754,153.600 130.600 C 153.380 130.464,153.200 130.543,153.200 130.776 C 153.200 131.009,153.380 131.200,153.600 131.200 C 153.820 131.200,154.000 131.391,154.000 131.624 C 154.000 131.857,153.820 131.936,153.600 131.800 C 153.344 131.642,153.200 132.929,153.200 135.376 C 153.200 138.155,153.063 139.207,152.700 139.225 C 152.425 139.239,152.560 139.389,153.000 139.558 C 153.440 139.727,159.560 139.728,166.600 139.560 C 173.640 139.393,188.400 139.045,199.400 138.786 C 221.563 138.266,219.999 138.426,220.001 136.676 C 220.002 135.974,220.356 134.822,220.787 134.115 C 221.816 132.427,221.517 132.264,216.800 131.935 C 214.710 131.790,210.750 131.471,208.000 131.227 C 202.732 130.760,196.957 130.265,189.000 129.599 C 186.360 129.378,182.220 129.026,179.800 128.816 C 177.380 128.607,173.058 128.252,170.195 128.026 C 167.332 127.800,164.022 127.432,162.840 127.208 C 161.658 126.983,159.995 126.800,159.145 126.800 C 158.295 126.800,157.600 126.620,157.600 126.400 C 157.600 126.180,156.790 126.000,155.800 126.000 L 154.000 126.000 154.000 128.424 M229.090 133.043 C 228.968 133.165,229.121 133.871,229.430 134.610 C 230.549 137.289,228.935 138.216,227.624 135.647 C 225.958 132.381,222.000 133.463,222.000 137.186 L 222.000 138.425 228.300 138.217 C 231.765 138.103,237.595 137.914,241.255 137.798 L 247.910 137.587 248.173 138.634 C 248.317 139.209,248.419 144.207,248.399 149.740 C 248.379 155.273,248.371 169.205,248.381 180.700 L 248.400 201.600 250.026 201.600 C 250.921 201.600,252.020 201.797,252.469 202.037 C 253.771 202.734,254.075 202.005,254.433 197.329 C 254.616 194.948,254.953 190.795,255.182 188.100 C 255.412 185.405,255.788 180.995,256.018 178.300 C 256.247 175.605,256.599 171.510,256.800 169.200 C 259.381 139.493,259.611 136.261,259.177 135.821 C 258.971 135.613,256.867 135.307,254.501 135.142 C 252.136 134.976,248.130 134.659,245.600 134.437 C 243.070 134.215,238.496 133.838,235.436 133.600 C 232.375 133.362,229.745 133.090,229.591 132.995 C 229.438 132.900,229.212 132.922,229.090 133.043 M236.800 153.000 C 236.800 153.330,236.980 153.600,237.200 153.600 C 237.420 153.600,237.600 153.330,237.600 153.000 C 237.600 152.670,237.420 152.400,237.200 152.400 C 236.980 152.400,236.800 152.670,236.800 153.000 M179.200 157.800 C 179.200 158.130,179.380 158.400,179.600 158.400 C 179.820 158.400,180.000 158.130,180.000 157.800 C 180.000 157.470,179.820 157.200,179.600 157.200 C 179.380 157.200,179.200 157.470,179.200 157.800 M164.250 160.683 C 164.124 160.809,164.117 161.066,164.234 161.256 C 164.515 161.710,165.600 161.700,165.600 161.243 C 165.600 160.801,164.562 160.371,164.250 160.683 M241.265 163.417 C 240.707 164.642,240.694 164.800,241.153 164.800 C 241.470 164.800,242.074 162.747,241.830 162.498 C 241.775 162.442,241.521 162.856,241.265 163.417 M174.481 174.102 C 174.108 174.552,174.087 174.807,174.407 175.004 C 174.999 175.370,175.302 175.023,175.135 174.169 C 175.013 173.544,174.949 173.537,174.481 174.102 M149.433 180.657 C 149.118 181.479,149.384 181.768,150.176 181.465 C 150.528 181.330,150.686 180.969,150.550 180.615 C 150.243 179.813,149.750 179.832,149.433 180.657 M153.791 188.809 C 153.189 189.475,153.173 189.600,153.689 189.600 C 154.457 189.600,155.372 188.553,154.873 188.245 C 154.672 188.121,154.185 188.375,153.791 188.809 M216.228 192.755 C 215.967 193.177,217.113 194.220,217.459 193.874 C 217.792 193.541,217.310 192.400,216.836 192.400 C 216.622 192.400,216.349 192.560,216.228 192.755 M230.481 196.741 C 230.065 197.005,230.081 197.170,230.564 197.570 C 231.250 198.139,232.000 197.829,232.000 196.976 C 232.000 196.341,231.286 196.231,230.481 196.741 M231.200 204.200 C 231.200 204.530,231.380 204.800,231.600 204.800 C 231.820 204.800,232.000 204.530,232.000 204.200 C 232.000 203.870,231.820 203.600,231.600 203.600 C 231.380 203.600,231.200 203.870,231.200 204.200 M199.843 206.233 C 199.496 207.136,199.529 207.202,200.200 206.945 C 200.530 206.818,200.800 206.464,200.800 206.157 C 200.800 205.399,200.143 205.451,199.843 206.233 M232.344 211.166 C 231.825 211.587,231.520 212.051,231.666 212.198 C 232.072 212.606,233.600 211.649,233.600 210.986 C 233.600 210.229,233.479 210.246,232.344 211.166 M204.800 227.768 C 204.800 228.338,207.057 229.077,207.486 228.648 C 207.611 228.522,207.486 228.145,207.208 227.810 C 206.565 227.034,204.800 227.004,204.800 227.768 M210.000 230.338 C 210.000 230.524,210.360 231.002,210.800 231.400 C 211.739 232.250,211.894 231.551,210.971 230.629 C 210.265 229.922,210.000 229.843,210.000 230.338 M220.412 231.184 C 220.088 231.389,219.945 231.679,220.094 231.828 C 220.460 232.194,221.600 231.728,221.600 231.213 C 221.600 230.705,221.186 230.695,220.412 231.184 M205.867 254.667 C 205.526 255.008,205.517 256.800,205.856 256.800 C 206.241 256.800,207.173 255.470,207.187 254.900 C 207.201 254.371,206.318 254.216,205.867 254.667 M143.200 269.576 C 143.200 270.029,143.380 270.400,143.600 270.400 C 143.820 270.400,144.000 270.141,144.000 269.824 C 144.000 269.507,143.820 269.136,143.600 269.000 C 143.380 268.864,143.200 269.123,143.200 269.576 M155.833 269.457 C 155.695 269.819,155.671 270.204,155.781 270.314 C 156.099 270.633,157.214 269.547,156.972 269.155 C 156.629 268.599,156.110 268.737,155.833 269.457 " stroke="none" fill="#e7f6f4" fill-rule="evenodd"></path><path id="path4" d="M161.200 120.200 C 161.200 120.530,161.380 120.800,161.600 120.800 C 161.820 120.800,162.000 120.530,162.000 120.200 C 162.000 119.870,161.820 119.600,161.600 119.600 C 161.380 119.600,161.200 119.870,161.200 120.200 M168.000 120.000 C 168.000 120.220,168.270 120.400,168.600 120.400 C 168.930 120.400,169.200 120.220,169.200 120.000 C 169.200 119.780,168.930 119.600,168.600 119.600 C 168.270 119.600,168.000 119.780,168.000 120.000 M157.600 126.400 C 157.600 126.620,158.230 126.800,159.000 126.800 C 159.770 126.800,160.400 126.620,160.400 126.400 C 160.400 126.180,159.770 126.000,159.000 126.000 C 158.230 126.000,157.600 126.180,157.600 126.400 M164.033 127.347 C 164.125 127.428,165.370 127.593,166.800 127.715 C 168.438 127.854,168.956 127.818,168.200 127.615 C 166.978 127.289,163.730 127.080,164.033 127.347 M175.200 128.420 C 177.614 128.850,179.506 128.813,177.400 128.377 C 176.520 128.195,175.260 128.058,174.600 128.073 C 173.700 128.093,173.850 128.180,175.200 128.420 M184.400 129.220 C 186.814 129.650,188.706 129.613,186.600 129.177 C 185.720 128.995,184.460 128.858,183.800 128.873 C 182.900 128.893,183.050 128.980,184.400 129.220 M153.200 129.776 C 153.200 130.093,153.380 130.464,153.600 130.600 C 153.820 130.736,154.000 130.477,154.000 130.024 C 154.000 129.571,153.820 129.200,153.600 129.200 C 153.380 129.200,153.200 129.459,153.200 129.776 M192.433 129.750 C 192.525 129.832,193.680 130.000,195.000 130.123 C 196.578 130.270,196.989 130.235,196.200 130.020 C 194.966 129.685,192.136 129.482,192.433 129.750 M201.633 130.547 C 201.725 130.628,202.970 130.793,204.400 130.915 C 206.038 131.054,206.556 131.018,205.800 130.815 C 204.578 130.489,201.330 130.280,201.633 130.547 M212.600 131.623 C 213.480 131.805,214.650 131.944,215.200 131.931 C 215.841 131.916,215.626 131.789,214.600 131.577 C 213.720 131.395,212.550 131.256,212.000 131.269 C 211.359 131.284,211.574 131.411,212.600 131.623 M220.887 132.425 C 221.529 132.799,221.523 132.907,220.788 134.112 C 220.356 134.821,220.002 135.991,220.001 136.713 C 220.000 138.450,220.912 138.325,205.000 138.757 L 191.000 139.137 205.114 138.951 C 221.249 138.737,220.241 138.891,220.497 136.613 C 220.605 135.656,221.077 134.334,221.547 133.675 C 222.644 132.134,222.623 131.998,221.300 132.012 C 220.373 132.022,220.308 132.087,220.887 132.425 M228.000 133.200 C 228.000 133.420,228.144 133.600,228.320 133.600 C 228.495 133.600,228.872 134.243,229.156 135.030 C 229.441 135.816,229.757 136.376,229.860 136.273 C 229.963 136.170,229.782 135.452,229.457 134.676 C 229.133 133.900,228.973 133.161,229.101 133.033 C 229.229 132.905,229.033 132.800,228.667 132.800 C 228.300 132.800,228.000 132.980,228.000 133.200 M229.633 132.947 C 229.725 133.028,230.970 133.193,232.400 133.315 C 234.038 133.454,234.556 133.418,233.800 133.215 C 232.578 132.889,229.330 132.680,229.633 132.947 M223.561 133.645 C 220.596 134.733,220.860 138.584,223.902 138.635 L 226.005 138.670 224.002 138.514 C 221.066 138.286,221.144 135.128,224.117 133.827 C 225.563 133.194,225.154 133.060,223.561 133.645 M226.143 133.949 C 226.552 134.109,227.131 134.682,227.429 135.220 C 227.792 135.875,227.976 135.988,227.986 135.562 C 228.003 134.788,226.753 133.589,225.969 133.628 C 225.612 133.646,225.677 133.765,226.143 133.949 M240.800 134.020 C 243.214 134.450,245.106 134.413,243.000 133.977 C 242.120 133.795,240.860 133.658,240.200 133.673 C 239.300 133.693,239.450 133.780,240.800 134.020 M250.000 134.820 C 252.414 135.250,254.306 135.213,252.200 134.777 C 251.320 134.595,250.060 134.458,249.400 134.473 C 248.500 134.493,248.650 134.580,250.000 134.820 M258.737 135.626 C 259.597 135.971,259.657 136.176,259.459 138.101 L 259.244 140.200 259.666 138.294 C 260.124 136.229,259.707 135.176,258.451 135.225 C 258.028 135.242,258.128 135.382,258.737 135.626 M235.200 138.024 L 227.000 138.273 237.287 138.214 C 245.734 138.165,247.612 138.254,247.787 138.710 C 248.443 140.420,247.992 159.251,247.300 159.036 C 246.245 158.708,245.204 159.472,246.000 159.991 C 246.330 160.206,246.913 160.284,247.295 160.165 C 247.950 159.962,247.991 161.168,247.989 180.634 C 247.987 192.011,248.080 201.413,248.193 201.527 C 248.482 201.816,248.438 139.692,248.149 138.539 C 247.933 137.678,247.725 137.607,245.657 137.688 C 244.415 137.736,239.710 137.887,235.200 138.024 M164.200 139.600 L 155.400 139.824 163.200 139.857 C 167.490 139.875,175.410 139.768,180.800 139.620 L 190.600 139.350 181.800 139.363 C 176.960 139.370,169.040 139.477,164.200 139.600 M232.800 142.233 C 232.800 142.940,233.661 142.817,233.908 142.075 C 233.995 141.814,233.782 141.600,233.433 141.600 C 233.085 141.600,232.800 141.885,232.800 142.233 M230.400 143.600 C 230.400 143.820,230.670 144.000,231.000 144.000 C 231.330 144.000,231.600 143.820,231.600 143.600 C 231.600 143.380,231.330 143.200,231.000 143.200 C 230.670 143.200,230.400 143.380,230.400 143.600 M144.000 146.800 C 144.000 148.400,144.171 149.600,144.400 149.600 C 144.629 149.600,144.800 148.400,144.800 146.800 C 144.800 145.200,144.629 144.000,144.400 144.000 C 144.171 144.000,144.000 145.200,144.000 146.800 M246.400 144.600 C 246.400 144.930,246.580 145.200,246.800 145.200 C 247.020 145.200,247.200 144.930,247.200 144.600 C 247.200 144.270,247.020 144.000,246.800 144.000 C 246.580 144.000,246.400 144.270,246.400 144.600 M258.629 146.829 C 258.476 148.179,258.433 149.366,258.533 149.467 C 258.634 149.567,258.844 148.547,259.000 147.200 C 259.156 145.853,259.199 144.666,259.095 144.562 C 258.991 144.458,258.781 145.478,258.629 146.829 M233.795 146.500 C 233.501 147.170,232.940 147.466,231.600 147.657 L 229.800 147.915 231.903 147.881 C 234.328 147.841,234.674 148.084,234.930 150.000 C 235.033 150.771,235.085 150.411,235.046 149.200 C 234.995 147.631,235.150 146.866,235.587 146.533 C 235.935 146.267,236.046 145.922,235.845 145.733 C 235.650 145.550,235.410 145.625,235.312 145.900 C 235.214 146.175,234.958 146.400,234.743 146.400 C 234.528 146.400,234.464 146.220,234.600 146.000 C 234.736 145.780,234.699 145.600,234.518 145.600 C 234.338 145.600,234.012 146.005,233.795 146.500 M240.256 146.278 C 239.778 146.756,239.998 147.600,240.600 147.600 C 240.930 147.600,241.200 147.341,241.200 147.024 C 241.200 146.355,240.629 145.904,240.256 146.278 M222.900 148.291 C 223.725 148.378,225.075 148.378,225.900 148.291 C 226.725 148.205,226.050 148.134,224.400 148.134 C 222.750 148.134,222.075 148.205,222.900 148.291 M217.305 148.687 C 217.914 148.779,218.814 148.777,219.305 148.682 C 219.797 148.587,219.300 148.511,218.200 148.514 C 217.100 148.517,216.697 148.595,217.305 148.687 M207.400 149.200 L 204.600 149.459 207.400 149.480 C 208.940 149.491,211.460 149.371,213.000 149.213 L 215.800 148.926 213.000 148.934 C 211.460 148.938,208.940 149.058,207.400 149.200 M196.614 149.898 C 193.959 150.062,193.181 150.488,193.240 151.749 C 193.275 152.500,193.312 152.482,193.556 151.600 C 193.826 150.626,193.975 150.588,199.216 150.161 C 204.324 149.744,202.350 149.545,196.614 149.898 M237.672 150.500 C 237.806 151.441,238.463 151.610,238.742 150.774 C 238.834 150.498,238.711 150.408,238.456 150.565 C 238.172 150.741,238.096 150.616,238.247 150.221 C 238.379 149.877,238.276 149.600,238.015 149.600 C 237.756 149.600,237.602 150.004,237.672 150.500 M143.862 155.900 C 143.320 165.109,143.073 182.000,143.480 182.000 C 143.987 182.000,144.313 176.603,144.658 162.500 C 144.836 155.232,144.790 151.600,144.520 151.600 C 144.287 151.600,144.007 153.430,143.862 155.900 M236.182 152.029 C 235.854 152.560,236.783 154.072,237.327 153.893 C 238.187 153.610,238.108 152.122,237.221 151.890 C 236.770 151.772,236.302 151.834,236.182 152.029 M237.600 153.000 C 237.600 153.330,237.420 153.600,237.200 153.600 C 236.980 153.600,236.800 153.330,236.800 153.000 C 236.800 152.670,236.980 152.400,237.200 152.400 C 237.420 152.400,237.600 152.670,237.600 153.000 M162.998 153.604 C 162.845 153.851,162.853 154.176,163.015 154.327 C 163.177 154.477,163.390 154.375,163.488 154.100 C 163.586 153.825,163.842 153.600,164.057 153.600 C 164.272 153.600,164.322 153.803,164.168 154.052 C 164.008 154.311,164.096 154.435,164.374 154.342 C 164.641 154.253,164.892 154.005,164.930 153.790 C 165.030 153.231,163.330 153.067,162.998 153.604 M193.720 157.400 C 193.709 159.820,193.826 164.410,193.980 167.600 L 194.260 173.400 194.281 168.800 C 194.293 166.270,194.176 161.680,194.021 158.600 L 193.739 153.000 193.720 157.400 M257.866 155.968 C 257.719 157.378,257.674 158.607,257.766 158.700 C 258.014 158.947,258.515 154.546,258.310 153.930 C 258.213 153.640,258.014 154.557,257.866 155.968 M158.400 157.957 C 158.400 158.154,158.670 158.418,159.000 158.545 C 159.365 158.685,159.600 158.545,159.600 158.187 C 159.600 157.864,159.330 157.600,159.000 157.600 C 158.670 157.600,158.400 157.761,158.400 157.957 M165.600 159.200 C 165.600 159.733,165.333 160.000,164.800 160.000 C 164.360 160.000,164.000 160.180,164.000 160.400 C 164.000 160.620,164.135 160.779,164.300 160.753 C 165.059 160.633,165.600 160.838,165.600 161.247 C 165.600 161.496,165.247 161.601,164.800 161.484 C 164.360 161.369,164.000 161.451,164.000 161.665 C 164.000 161.880,164.405 161.998,164.900 161.927 C 165.564 161.831,165.775 161.562,165.705 160.899 C 165.642 160.303,165.824 160.000,166.248 160.000 C 166.665 160.000,166.802 159.781,166.643 159.367 C 166.509 159.019,166.400 158.659,166.400 158.567 C 166.400 158.475,166.220 158.400,166.000 158.400 C 165.780 158.400,165.600 158.760,165.600 159.200 M169.200 158.800 C 169.200 159.020,169.470 159.200,169.800 159.200 C 170.130 159.200,170.400 159.020,170.400 158.800 C 170.400 158.580,170.130 158.400,169.800 158.400 C 169.470 158.400,169.200 158.580,169.200 158.800 M152.800 162.000 C 152.800 162.220,153.070 162.400,153.400 162.400 C 153.730 162.400,154.000 162.220,154.000 162.000 C 154.000 161.780,153.730 161.600,153.400 161.600 C 153.070 161.600,152.800 161.780,152.800 162.000 M241.295 162.100 C 240.628 162.929,240.305 165.094,240.803 165.402 C 241.470 165.814,242.373 164.388,242.387 162.900 C 242.401 161.547,241.985 161.243,241.295 162.100 M241.718 163.700 C 241.602 164.305,241.348 164.800,241.153 164.800 C 240.694 164.800,240.707 164.642,241.265 163.417 C 241.839 162.158,241.995 162.256,241.718 163.700 M257.046 165.446 C 256.900 166.693,256.859 167.793,256.957 167.890 C 257.054 167.988,257.261 167.054,257.415 165.815 C 257.570 164.577,257.610 163.477,257.505 163.371 C 257.399 163.266,257.193 164.199,257.046 165.446 M154.400 166.400 C 154.400 166.916,154.603 167.199,154.900 167.100 C 155.175 167.008,155.400 166.693,155.400 166.400 C 155.400 166.107,155.175 165.792,154.900 165.700 C 154.603 165.601,154.400 165.884,154.400 166.400 M164.000 167.600 C 164.000 167.820,164.270 168.000,164.600 168.000 C 164.930 168.000,165.200 167.820,165.200 167.600 C 165.200 167.380,164.930 167.200,164.600 167.200 C 164.270 167.200,164.000 167.380,164.000 167.600 M174.000 168.400 C 174.000 168.620,174.360 168.800,174.800 168.800 C 175.240 168.800,175.600 168.620,175.600 168.400 C 175.600 168.180,175.240 168.000,174.800 168.000 C 174.360 168.000,174.000 168.180,174.000 168.400 M256.229 174.829 C 256.076 176.179,256.033 177.366,256.133 177.467 C 256.234 177.567,256.444 176.547,256.600 175.200 C 256.756 173.853,256.799 172.666,256.695 172.562 C 256.591 172.458,256.381 173.478,256.229 174.829 M173.986 174.027 C 173.513 174.910,173.961 175.597,175.000 175.582 C 175.220 175.578,175.075 175.387,174.678 175.156 C 174.084 174.810,174.045 174.627,174.459 174.129 C 174.903 173.593,174.999 173.609,175.278 174.261 C 175.577 174.961,175.588 174.960,175.497 174.233 C 175.357 173.123,174.530 173.010,173.986 174.027 M194.509 178.400 C 194.454 186.921,194.828 189.793,196.000 189.839 C 196.870 189.872,196.883 189.856,196.100 189.712 C 195.299 189.565,195.195 189.297,195.151 187.273 C 195.124 186.023,194.976 182.480,194.821 179.400 L 194.539 173.800 194.509 178.400 M140.800 175.000 C 140.800 175.673,140.873 175.700,141.767 175.357 C 142.661 175.014,142.554 174.400,141.600 174.400 C 141.156 174.400,140.800 174.667,140.800 175.000 M179.888 178.686 C 179.997 178.969,180.227 179.200,180.400 179.200 C 180.573 179.200,180.803 178.969,180.912 178.686 C 181.027 178.386,180.813 178.171,180.400 178.171 C 179.987 178.171,179.773 178.386,179.888 178.686 M156.800 178.720 C 156.800 178.896,157.016 179.256,157.280 179.520 C 157.985 180.225,158.400 180.107,158.400 179.200 C 158.400 178.667,158.133 178.400,157.600 178.400 C 157.160 178.400,156.800 178.544,156.800 178.720 M245.687 179.262 C 245.786 179.558,246.187 179.862,246.579 179.938 C 247.035 180.027,247.228 179.882,247.113 179.538 C 247.014 179.242,246.613 178.938,246.221 178.862 C 245.765 178.773,245.572 178.918,245.687 179.262 M149.259 180.230 C 148.711 181.433,148.948 182.000,150.000 182.000 C 150.414 182.000,150.856 181.833,150.981 181.630 C 151.237 181.216,150.423 179.200,150.000 179.200 C 149.851 179.200,149.517 179.663,149.259 180.230 M150.550 180.615 C 150.686 180.969,150.528 181.330,150.176 181.465 C 149.384 181.768,149.118 181.479,149.433 180.657 C 149.750 179.832,150.243 179.813,150.550 180.615 M153.280 181.280 C 152.620 181.940,152.679 182.400,153.424 182.400 C 153.767 182.400,153.936 182.220,153.800 182.000 C 153.664 181.780,153.844 181.600,154.200 181.600 C 154.556 181.600,154.736 181.780,154.600 182.000 C 154.464 182.220,154.543 182.400,154.776 182.400 C 155.009 182.400,155.200 182.256,155.200 182.080 C 155.200 181.706,154.350 180.800,154.000 180.800 C 153.868 180.800,153.544 181.016,153.280 181.280 M255.466 183.968 C 255.319 185.378,255.274 186.607,255.366 186.700 C 255.614 186.947,256.115 182.546,255.910 181.930 C 255.813 181.640,255.614 182.557,255.466 183.968 M143.200 185.933 C 143.200 187.217,143.101 188.366,142.979 188.488 C 142.565 188.901,142.283 214.000,142.692 214.000 C 143.072 214.000,143.600 208.605,143.600 204.726 C 143.600 203.361,143.780 202.706,144.200 202.545 C 144.933 202.263,144.984 201.355,144.290 200.920 C 143.899 200.674,143.829 199.250,143.990 194.800 C 144.238 187.941,144.074 183.600,143.566 183.600 C 143.365 183.600,143.200 184.650,143.200 185.933 M160.800 186.400 C 160.800 186.840,160.980 187.200,161.200 187.200 C 161.420 187.200,161.600 186.840,161.600 186.400 C 161.600 185.960,161.420 185.600,161.200 185.600 C 160.980 185.600,160.800 185.960,160.800 186.400 M153.544 188.374 C 152.655 189.104,152.639 189.188,153.280 189.840 C 153.990 190.562,155.200 190.077,155.200 189.071 C 155.200 188.790,155.033 188.807,154.720 189.120 C 153.839 190.001,152.975 189.712,153.791 188.809 C 154.185 188.375,154.663 188.115,154.853 188.233 C 155.044 188.351,155.200 188.257,155.200 188.024 C 155.200 187.384,154.596 187.512,153.544 188.374 M170.052 191.737 C 169.563 192.327,169.836 192.800,170.667 192.800 C 170.960 192.800,171.200 192.440,171.200 192.000 C 171.200 191.077,170.696 190.961,170.052 191.737 M254.646 193.446 C 254.500 194.693,254.459 195.793,254.557 195.890 C 254.654 195.988,254.861 195.054,255.015 193.815 C 255.170 192.577,255.210 191.477,255.105 191.371 C 254.999 191.266,254.793 192.199,254.646 193.446 M148.480 192.080 C 147.936 192.624,147.835 193.600,148.324 193.600 C 149.021 193.600,150.107 192.496,149.838 192.061 C 149.474 191.472,149.082 191.478,148.480 192.080 M216.275 191.858 C 215.787 192.347,215.981 192.629,216.805 192.629 C 217.247 192.629,217.551 192.453,217.480 192.239 C 217.309 191.728,216.622 191.511,216.275 191.858 M216.066 193.600 C 216.366 194.516,218.001 194.625,217.994 193.728 C 217.989 193.136,217.920 193.107,217.624 193.574 C 217.309 194.073,217.170 194.073,216.565 193.574 C 215.958 193.073,215.895 193.076,216.066 193.600 M184.880 194.480 C 184.616 194.744,184.400 195.194,184.400 195.480 C 184.400 196.132,185.284 196.156,185.920 195.520 C 186.556 194.884,186.532 194.000,185.880 194.000 C 185.594 194.000,185.144 194.216,184.880 194.480 M230.000 196.600 C 229.392 197.332,230.095 198.400,231.185 198.400 C 231.741 198.400,232.800 196.946,232.800 196.181 C 232.800 195.716,230.441 196.069,230.000 196.600 M241.200 196.400 C 241.200 196.620,241.470 196.800,241.800 196.800 C 242.130 196.800,242.400 196.620,242.400 196.400 C 242.400 196.180,242.130 196.000,241.800 196.000 C 241.470 196.000,241.200 196.180,241.200 196.400 M232.000 196.976 C 232.000 197.829,231.250 198.139,230.564 197.570 C 230.081 197.170,230.065 197.005,230.481 196.741 C 231.286 196.231,232.000 196.341,232.000 196.976 M253.988 201.200 C 253.849 201.937,253.589 202.163,253.000 202.061 C 252.560 201.984,251.390 201.859,250.400 201.784 L 248.600 201.646 250.432 201.980 C 254.026 202.636,257.288 205.050,258.563 208.000 C 258.896 208.770,259.176 209.116,259.184 208.769 C 259.209 207.779,256.847 204.473,255.582 203.726 C 254.726 203.220,254.406 202.693,254.308 201.625 C 254.198 200.433,254.145 200.364,253.988 201.200 M153.867 201.467 C 153.321 202.013,153.628 202.452,154.469 202.328 C 155.568 202.166,155.937 201.200,154.900 201.200 C 154.478 201.200,154.013 201.320,153.867 201.467 M230.994 203.618 C 230.660 204.671,231.384 205.576,232.038 204.922 C 232.569 204.391,232.377 203.125,231.734 202.911 C 231.478 202.826,231.145 203.144,230.994 203.618 M232.000 204.200 C 232.000 204.530,231.820 204.800,231.600 204.800 C 231.380 204.800,231.200 204.530,231.200 204.200 C 231.200 203.870,231.380 203.600,231.600 203.600 C 231.820 203.600,232.000 203.870,232.000 204.200 M199.823 205.689 C 199.480 206.178,199.200 206.977,199.200 207.465 C 199.200 207.953,199.008 208.471,198.774 208.616 C 198.251 208.939,199.469 210.400,200.262 210.400 C 200.915 210.400,200.921 210.304,200.349 209.047 C 199.970 208.217,200.035 207.881,200.749 206.974 C 201.217 206.379,201.600 205.646,201.600 205.346 C 201.600 204.494,200.512 204.704,199.823 205.689 M200.800 206.157 C 200.800 206.464,200.530 206.818,200.200 206.945 C 199.529 207.202,199.496 207.136,199.843 206.233 C 200.143 205.451,200.800 205.399,200.800 206.157 M194.198 208.003 C 194.061 208.224,194.238 208.517,194.592 208.652 C 195.358 208.946,195.785 208.622,195.416 208.027 C 195.084 207.489,194.522 207.478,194.198 208.003 M235.800 208.000 C 235.508 208.472,235.887 209.200,236.424 209.200 C 236.631 209.200,236.800 208.840,236.800 208.400 C 236.800 207.556,236.218 207.324,235.800 208.000 M248.000 209.000 C 248.000 209.330,248.180 209.600,248.400 209.600 C 248.620 209.600,248.800 209.330,248.800 209.000 C 248.800 208.670,248.620 208.400,248.400 208.400 C 248.180 208.400,248.000 208.670,248.000 209.000 M259.128 210.499 C 259.032 211.176,258.776 211.369,258.100 211.275 C 257.510 211.193,257.200 211.357,257.200 211.751 C 257.200 212.585,257.931 212.956,258.554 212.438 C 259.244 211.866,259.600 212.284,259.600 213.667 C 259.600 214.290,259.801 214.800,260.047 214.800 C 260.296 214.800,260.401 214.447,260.284 214.000 C 260.139 213.444,260.277 213.190,260.737 213.168 C 261.153 213.149,261.214 213.062,260.900 212.935 C 260.625 212.824,260.400 212.493,260.400 212.200 C 260.400 211.907,260.625 211.562,260.900 211.433 C 261.298 211.248,261.296 211.152,260.893 210.964 C 260.614 210.835,260.131 210.474,259.821 210.164 C 259.334 209.677,259.238 209.724,259.128 210.499 M232.400 210.516 C 231.151 211.145,230.791 212.800,231.902 212.800 C 232.726 212.800,234.400 211.241,234.400 210.474 C 234.400 209.864,233.662 209.880,232.400 210.516 M233.600 210.986 C 233.600 211.649,232.072 212.606,231.666 212.198 C 231.520 212.051,231.825 211.587,232.344 211.166 C 233.479 210.246,233.600 210.229,233.600 210.986 M169.600 212.200 C 169.600 212.530,169.780 212.800,170.000 212.800 C 170.220 212.800,170.400 212.530,170.400 212.200 C 170.400 211.870,170.220 211.600,170.000 211.600 C 169.780 211.600,169.600 211.870,169.600 212.200 M173.200 214.800 C 173.200 215.020,173.470 215.200,173.800 215.200 C 174.130 215.200,174.400 215.020,174.400 214.800 C 174.400 214.580,174.130 214.400,173.800 214.400 C 173.470 214.400,173.200 214.580,173.200 214.800 M142.256 220.100 C 141.722 228.488,141.469 246.000,141.881 246.000 C 142.114 246.000,142.376 244.210,142.501 241.778 C 142.658 238.697,142.890 237.364,143.358 236.846 C 144.177 235.941,144.173 235.352,143.344 235.034 C 142.797 234.824,142.731 234.402,142.949 232.491 C 143.093 231.231,143.237 229.930,143.268 229.600 C 143.479 227.404,143.135 216.000,142.858 216.000 C 142.670 216.000,142.399 217.845,142.256 220.100 M211.400 217.200 C 211.264 217.420,211.523 217.600,211.976 217.600 C 212.429 217.600,212.800 217.420,212.800 217.200 C 212.800 216.980,212.541 216.800,212.224 216.800 C 211.907 216.800,211.536 216.980,211.400 217.200 M241.600 217.600 C 241.600 218.116,241.803 218.399,242.100 218.300 C 242.375 218.208,242.600 217.893,242.600 217.600 C 242.600 217.307,242.375 216.992,242.100 216.900 C 241.803 216.801,241.600 217.084,241.600 217.600 M189.400 218.000 C 189.031 218.598,189.545 219.200,190.424 219.200 C 191.309 219.200,191.420 218.780,190.720 218.080 C 190.135 217.495,189.727 217.470,189.400 218.000 M148.800 219.800 C 148.800 220.130,148.980 220.400,149.200 220.400 C 149.420 220.400,149.600 220.130,149.600 219.800 C 149.600 219.470,149.420 219.200,149.200 219.200 C 148.980 219.200,148.800 219.470,148.800 219.800 M169.600 219.600 C 169.600 219.820,169.870 220.000,170.200 220.000 C 170.530 220.000,170.800 219.820,170.800 219.600 C 170.800 219.380,170.530 219.200,170.200 219.200 C 169.870 219.200,169.600 219.380,169.600 219.600 M226.400 221.400 C 226.400 221.730,226.580 222.000,226.800 222.000 C 227.020 222.000,227.200 221.730,227.200 221.400 C 227.200 221.070,227.020 220.800,226.800 220.800 C 226.580 220.800,226.400 221.070,226.400 221.400 M240.800 224.200 C 240.800 224.530,240.980 224.800,241.200 224.800 C 241.420 224.800,241.600 224.530,241.600 224.200 C 241.600 223.870,241.420 223.600,241.200 223.600 C 240.980 223.600,240.800 223.870,240.800 224.200 M199.275 224.695 C 199.476 225.738,200.800 225.854,200.800 224.829 C 200.800 224.257,200.543 224.000,199.971 224.000 C 199.398 224.000,199.183 224.215,199.275 224.695 M204.889 227.023 C 203.631 227.904,203.742 228.811,205.100 228.754 C 205.777 228.725,205.931 228.637,205.500 228.524 C 204.463 228.253,204.638 227.200,205.720 227.200 C 207.277 227.200,208.221 228.579,206.900 228.924 C 206.244 229.096,206.245 229.110,206.913 229.154 C 208.086 229.230,208.241 227.987,207.162 227.158 C 205.986 226.253,205.987 226.253,204.889 227.023 M245.600 228.033 C 245.600 229.008,246.535 228.870,246.729 227.867 C 246.806 227.472,246.602 227.200,246.229 227.200 C 245.858 227.200,245.600 227.542,245.600 228.033 M225.600 228.200 C 225.600 228.530,225.780 228.800,226.000 228.800 C 226.220 228.800,226.400 228.530,226.400 228.200 C 226.400 227.870,226.220 227.600,226.000 227.600 C 225.780 227.600,225.600 227.870,225.600 228.200 M209.600 230.338 C 209.600 231.141,210.780 232.400,211.531 232.400 C 212.257 232.400,212.085 231.000,211.269 230.262 C 210.305 229.390,209.600 229.422,209.600 230.338 M231.200 230.200 C 231.200 230.530,231.380 230.800,231.600 230.800 C 231.820 230.800,232.000 230.530,232.000 230.200 C 232.000 229.870,231.820 229.600,231.600 229.600 C 231.380 229.600,231.200 229.870,231.200 230.200 M210.971 230.629 C 211.894 231.551,211.739 232.250,210.800 231.400 C 210.360 231.002,210.000 230.524,210.000 230.338 C 210.000 229.843,210.265 229.922,210.971 230.629 M220.215 230.939 C 219.450 231.499,219.663 232.400,220.562 232.400 C 221.084 232.400,222.400 231.160,222.400 230.669 C 222.400 230.202,220.983 230.378,220.215 230.939 M221.600 231.213 C 221.600 231.728,220.460 232.194,220.094 231.828 C 219.945 231.679,220.088 231.389,220.412 231.184 C 221.186 230.695,221.600 230.705,221.600 231.213 M249.839 237.138 C 249.700 237.361,249.782 237.665,250.020 237.812 C 250.635 238.193,251.032 237.672,250.518 237.158 C 250.231 236.871,250.007 236.864,249.839 237.138 M179.663 238.447 C 179.312 239.009,179.268 239.428,179.532 239.692 C 180.124 240.284,180.800 239.688,180.800 238.576 C 180.800 237.375,180.364 237.326,179.663 238.447 M159.439 238.294 C 158.958 238.776,159.220 239.200,160.000 239.200 C 160.440 239.200,160.800 239.039,160.800 238.843 C 160.800 238.393,159.760 237.974,159.439 238.294 M185.600 240.200 C 185.600 240.530,185.870 240.800,186.200 240.800 C 186.530 240.800,186.800 240.530,186.800 240.200 C 186.800 239.870,186.530 239.600,186.200 239.600 C 185.870 239.600,185.600 239.870,185.600 240.200 M255.878 240.256 C 255.558 240.575,255.919 241.200,256.424 241.200 C 256.631 241.200,256.800 240.930,256.800 240.600 C 256.800 239.981,256.328 239.805,255.878 240.256 M222.745 241.158 C 223.206 241.449,223.206 241.533,222.745 241.697 C 222.445 241.803,222.345 242.045,222.522 242.234 C 222.699 242.422,223.011 242.312,223.216 241.988 C 223.767 241.117,223.682 240.799,222.900 240.806 C 222.352 240.811,222.319 240.887,222.745 241.158 M235.200 241.200 C 235.200 241.420,235.470 241.600,235.800 241.600 C 236.130 241.600,236.400 241.420,236.400 241.200 C 236.400 240.980,236.130 240.800,235.800 240.800 C 235.470 240.800,235.200 240.980,235.200 241.200 M143.200 242.600 C 143.200 242.945,143.561 243.200,144.049 243.200 C 144.758 243.200,144.816 243.101,144.400 242.600 C 144.126 242.270,143.744 242.000,143.551 242.000 C 143.358 242.000,143.200 242.270,143.200 242.600 M172.984 242.427 C 172.839 242.661,172.816 242.949,172.933 243.067 C 173.220 243.353,174.000 242.848,174.000 242.376 C 174.000 241.865,173.309 241.899,172.984 242.427 M216.978 246.435 C 216.831 246.674,216.894 247.054,217.120 247.280 C 217.625 247.785,218.400 247.358,218.400 246.576 C 218.400 245.903,217.371 245.800,216.978 246.435 M226.871 247.867 C 227.065 248.870,228.000 249.008,228.000 248.033 C 228.000 247.542,227.742 247.200,227.371 247.200 C 226.998 247.200,226.794 247.472,226.871 247.867 M141.671 251.363 C 141.742 253.213,141.710 254.671,141.600 254.604 C 141.490 254.537,141.365 257.253,141.321 260.641 C 141.252 266.054,141.726 269.112,142.075 265.500 C 142.161 264.602,142.408 264.198,142.872 264.195 C 144.044 264.186,144.169 263.626,143.272 262.411 C 142.459 261.312,142.400 260.786,142.400 254.616 C 142.400 250.170,142.259 248.000,141.971 248.000 C 141.689 248.000,141.586 249.154,141.671 251.363 M176.000 251.400 C 176.000 251.730,176.180 252.000,176.400 252.000 C 176.620 252.000,176.800 251.730,176.800 251.400 C 176.800 251.070,176.620 250.800,176.400 250.800 C 176.180 250.800,176.000 251.070,176.000 251.400 M199.268 251.870 C 199.356 252.330,199.825 252.648,200.539 252.730 C 201.452 252.835,201.644 252.719,201.532 252.130 C 201.444 251.670,200.975 251.352,200.261 251.270 C 199.348 251.165,199.156 251.281,199.268 251.870 M180.587 252.440 C 180.243 253.524,181.068 254.455,181.611 253.597 C 182.177 252.701,182.076 251.600,181.427 251.600 C 181.112 251.600,180.734 251.978,180.587 252.440 M188.800 252.629 C 188.800 253.002,189.072 253.206,189.467 253.129 C 190.470 252.935,190.608 252.000,189.633 252.000 C 189.142 252.000,188.800 252.258,188.800 252.629 M204.985 254.824 C 204.704 255.279,205.521 257.600,205.962 257.600 C 206.340 257.600,207.602 255.382,207.591 254.738 C 207.586 254.442,207.293 254.785,206.941 255.500 C 206.137 257.130,205.453 257.185,205.685 255.600 C 205.860 254.412,205.492 254.005,204.985 254.824 M211.200 258.400 C 211.200 259.354,211.814 259.461,212.157 258.567 C 212.500 257.673,212.473 257.600,211.800 257.600 C 211.467 257.600,211.200 257.956,211.200 258.400 M226.238 261.158 C 225.396 262.088,225.433 262.400,226.386 262.400 C 227.384 262.400,228.241 260.978,227.430 260.667 C 227.125 260.550,226.588 260.771,226.238 261.158 M237.600 262.800 C 237.600 263.020,237.870 263.200,238.200 263.200 C 238.530 263.200,238.800 263.020,238.800 262.800 C 238.800 262.580,238.530 262.400,238.200 262.400 C 237.870 262.400,237.600 262.580,237.600 262.800 M208.800 265.800 C 208.800 266.130,208.980 266.400,209.200 266.400 C 209.420 266.400,209.600 266.130,209.600 265.800 C 209.600 265.470,209.420 265.200,209.200 265.200 C 208.980 265.200,208.800 265.470,208.800 265.800 M214.184 265.627 C 214.039 265.861,214.016 266.149,214.133 266.267 C 214.420 266.553,215.200 266.048,215.200 265.576 C 215.200 265.065,214.509 265.099,214.184 265.627 M148.800 268.600 C 148.800 268.930,148.980 269.200,149.200 269.200 C 149.420 269.200,149.600 268.930,149.600 268.600 C 149.600 268.270,149.420 268.000,149.200 268.000 C 148.980 268.000,148.800 268.270,148.800 268.600 M142.880 268.742 C 142.464 269.006,142.456 269.286,142.844 270.136 C 143.620 271.839,144.700 271.248,144.230 269.377 C 143.969 268.337,143.711 268.215,142.880 268.742 M155.680 268.880 C 155.017 269.543,155.077 270.800,155.771 270.800 C 157.087 270.800,158.052 269.059,156.967 268.643 C 156.162 268.334,156.241 268.319,155.680 268.880 M184.404 268.995 C 183.876 269.632,184.115 270.800,184.773 270.800 C 185.318 270.800,186.094 269.276,185.795 268.792 C 185.452 268.236,184.976 268.306,184.404 268.995 M144.000 269.824 C 144.000 270.141,143.820 270.400,143.600 270.400 C 143.380 270.400,143.200 270.029,143.200 269.576 C 143.200 269.123,143.380 268.864,143.600 269.000 C 143.820 269.136,144.000 269.507,144.000 269.824 M156.972 269.155 C 157.214 269.547,156.099 270.633,155.781 270.314 C 155.498 270.032,156.018 268.800,156.419 268.800 C 156.603 268.800,156.851 268.960,156.972 269.155 M186.880 271.280 C 186.395 271.765,186.207 273.200,186.629 273.200 C 187.098 273.200,188.000 272.035,188.000 271.429 C 188.000 270.679,187.542 270.618,186.880 271.280 M200.578 271.235 C 200.190 271.863,200.950 272.471,201.743 272.166 C 202.269 271.965,202.318 271.783,201.961 271.353 C 201.409 270.688,200.941 270.648,200.578 271.235 " stroke="none" fill="#85c6bb" fill-rule="evenodd"></path></g></svg>