<svg id="Calque_1" data-name="Calque 1" xmlns="http://www.w3.org/2000/svg" width="105.32mm" height="105.32mm" viewBox="0 0 298.54488 298.54488">
  <defs>
    <style>
      .cls-1 {
        fill: #25a546;
      }

      .cls-2 {
        fill: #f9c205;
      }

      .cls-3 {
        fill: #ffc229;
      }

      .cls-4 {
        fill: #f7c366;
        stroke: #c6c497;
        stroke-miterlimit: 10;
        stroke-width: 0.25px;
      }

      .cls-5 {
        fill: #d3a545;
      }

      .cls-6 {
        fill: #f6ffee;
      }

      .cls-7 {
        fill: #ffdfba;
      }

      .cls-8 {
        fill: #ffaa64;
      }

      .cls-9 {
        fill: #ffebd2;
      }

      .cls-10 {
        fill: #42434d;
      }

      .cls-11 {
        fill: #ffd6a6;
      }

      .cls-12 {
        fill: #4d4e59;
      }

      .cls-13 {
        fill: #fff3e4;
      }

      .cls-14 {
        fill: #ffbd7b;
      }

      .cls-15 {
        fill: #faa157;
      }

      .cls-16 {
        fill: #207732;
      }
    </style>
  </defs>
  <title>Vitale</title>
  <rect class="cls-1" x="0.00415" y="56.34561" width="298.53659" height="185.85366" rx="13.65854"/>
  <path class="cls-2" d="M73.41065,242.19927h-59.748A13.65853,13.65853,0,0,1,.00415,228.54073V70.00415A13.61356,13.61356,0,0,1,3.86287,60.49"/>
  <g>
    <path class="cls-3" d="M32.95867,96.67911,22.72429,68.0463h6.26953l7.2461,21.1914,7.01172-21.1914h6.13281L39.13054,96.67911Z"/>
    <path class="cls-3" d="M54.37175,73.12442V68.0463H59.86v5.07812Zm0,23.55469V75.93692H59.86V96.67911Z"/>
    <path class="cls-3" d="M77.79705,75.93692v4.375h-3.75V88.6713a20.76051,20.76051,0,0,0,.10742,2.959,1.20279,1.20279,0,0,0,.48828.69336,1.54611,1.54611,0,0,0,.92773.27344,7.10165,7.10165,0,0,0,2.207-.52735l.46875,4.25782a10.912,10.912,0,0,1-4.33593.82031,6.87554,6.87554,0,0,1-2.67578-.498,3.90408,3.90408,0,0,1-1.748-1.28906,5.08571,5.08571,0,0,1-.77149-2.13867,26.59854,26.59854,0,0,1-.17578-3.86719v-9.043H66.0197v-4.375h2.51953V71.81583l5.50782-3.20313v7.32422Z"/>
    <path class="cls-3" d="M88.507,82.26505l-4.98047-.89844a7.75793,7.75793,0,0,1,2.89062-4.45313,10.57917,10.57917,0,0,1,6.09375-1.44531,13.13964,13.13964,0,0,1,5.46875.86914,5.4579,5.4579,0,0,1,2.5293,2.207,11.3181,11.3181,0,0,1,.73242,4.91211l-.05859,6.40625a22.23734,22.23734,0,0,0,.26367,4.0332,11.75465,11.75465,0,0,0,.98633,2.78321H97.0031q-.21533-.54639-.52734-1.6211-.137-.48778-.19532-.64453a9.89249,9.89249,0,0,1-3.00781,2.05078,8.61814,8.61814,0,0,1-3.418.6836,7.066,7.066,0,0,1-5.04883-1.73828,5.77751,5.77751,0,0,1-1.8457-4.39453A5.89743,5.89743,0,0,1,83.8,87.88028a5.48471,5.48471,0,0,1,2.35351-2.10938,18.39187,18.39187,0,0,1,4.36524-1.27929,29.85313,29.85313,0,0,0,5.332-1.34766v-.54687a2.84284,2.84284,0,0,0-.78125-2.25586,4.68189,4.68189,0,0,0-2.94922-.67383,3.93,3.93,0,0,0-2.28516.57617A4.00448,4.00448,0,0,0,88.507,82.26505Zm7.34375,4.45312a34.20674,34.20674,0,0,1-3.33985.83984,10.06516,10.06516,0,0,0-2.98828.957,2.28861,2.28861,0,0,0-1.07422,1.93359,2.68986,2.68986,0,0,0,.85938,1.99219,2.9988,2.9988,0,0,0,2.1875.83984,4.75159,4.75159,0,0,0,2.832-.97656,3.43737,3.43737,0,0,0,1.30859-1.81641,10.84379,10.84379,0,0,0,.21485-2.67578Z"/>
    <path class="cls-3" d="M109.45183,96.67911V68.0463h5.48828V96.67911Z"/>
    <path class="cls-3" d="M135.37664,90.07755l5.46875.918a8.97009,8.97009,0,0,1-3.33008,4.58008,9.78261,9.78261,0,0,1-5.69336,1.57227q-5.41041,0-8.00781-3.53516a11.87516,11.87516,0,0,1-2.05079-7.14844q0-5.15625,2.69532-8.07617a8.87739,8.87739,0,0,1,6.8164-2.91992,9.20819,9.20819,0,0,1,7.30469,3.05664q2.67553,3.05713,2.55859,9.36524h-13.75a5.55029,5.55029,0,0,0,1.32813,3.79882,4.15245,4.15245,0,0,0,3.16406,1.35743,3.36046,3.36046,0,0,0,2.168-.70313A4.34309,4.34309,0,0,0,135.37664,90.07755Zm.3125-5.54688a5.28506,5.28506,0,0,0-1.23047-3.62305,3.96059,3.96059,0,0,0-5.82032.06836,5.06375,5.06375,0,0,0-1.15234,3.55469Z"/>
  </g>
  <rect class="cls-4" x="19.52176" y="111.01228" width="53.88889" height="38.26016" rx="7.33333"/>
  <rect class="cls-5" x="25.14676" y="117.99689" width="14.32097" height="6.03269" rx="0.26544"/>
  <rect class="cls-5" x="25.14676" y="127.12601" width="14.32097" height="6.03269" rx="0.26544"/>
  <rect class="cls-5" x="25.14676" y="136.25513" width="14.32097" height="6.03269" rx="0.26544"/>
  <rect class="cls-5" x="52.53412" y="117.99689" width="14.32097" height="6.03269" rx="0.26544"/>
  <rect class="cls-5" x="52.53412" y="127.12601" width="14.32097" height="6.03269" rx="0.26544"/>
  <rect class="cls-5" x="52.53412" y="136.25513" width="14.32097" height="6.03269" rx="0.26544"/>
  <rect class="cls-5" x="42.96621" y="117.99689" width="6.26964" height="24.29093" rx="0.35243"/>
  <rect class="cls-6" x="218.63287" y="73.01228" width="52" height="66.2592" rx="4.22222"/>
  <g>
    <path class="cls-7" d="M263.38945,133.56527v4.74028a.96566.96566,0,0,1-.96593.96593H227.16725a.96566.96566,0,0,1-.96593-.96593v-4.74028a9.00737,9.00737,0,0,1,5.28361-8.20191,14.12058,14.12058,0,0,1-4.61953-5.2969,12.76636,12.76636,0,0,1,.87416-12.62585,12.41845,12.41845,0,0,0,2.084-6.88705V95.32187A12.07383,12.07383,0,0,1,241.89761,83.2478h5.79555a12.07383,12.07383,0,0,1,12.07407,12.07407c0,5.54043-.13535,6.6254.53247,8.82856.94238,3.11523,2.18709,3.50063,3.1465,6.67092a12.77416,12.77416,0,0,1-4.2706,13.69079l-1.06976.85122a9.00736,9.00736,0,0,1,5.28361,8.20191Z"/>
    <path class="cls-8" d="M263.38945,133.56527v4.74028a.966.966,0,0,1-.96593.96593H227.16725a.966.966,0,0,1-.96593-.96593v-4.74028a9.004,9.004,0,0,1,9.00363-9.00363,4.9966,4.9966,0,0,0,2.07433-.44795l.03018.0652,6.89466,5.33771a.96606.96606,0,0,0,1.18265,0l6.89454-5.33771.03018-.0652a4.99667,4.99667,0,0,0,2.07433.44795A9.00406,9.00406,0,0,1,263.38945,133.56527Z"/>
    <path class="cls-9" d="M255.83446,100.90709a.96658.96658,0,0,1,.91425.96424v5.78178a11.95333,11.95333,0,1,1-23.90665,0v-5.69776a.96462.96462,0,0,1,1.04875-.96242,24.99066,24.99066,0,0,0,16.29069-4.16543.96265.96265,0,0,1,1.46725.539,4.506,4.506,0,0,0,4.18571,3.5406Z"/>
    <path class="cls-10" d="M259.1756,124.51214l-1.06976.85122a8.981,8.981,0,0,0-3.72-.80172,4.99521,4.99521,0,0,1-5.00229-4.99142v-.82466l-.01811-.04467a11.9547,11.9547,0,0,0,7.3833-11.04777v-5.78179a.96659.96659,0,0,0-.91425-.96424,4.50367,4.50367,0,0,1-4.18572-3.54048.96264.96264,0,0,0-1.46724-.539,24.99205,24.99205,0,0,1-16.29069,4.16543.96462.96462,0,0,0-1.04876.96242v5.69776a11.9547,11.9547,0,0,0,7.38329,11.04777l-.01811.04467v.82466a4.99512,4.99512,0,0,1-5.00228,4.99142,8.981,8.981,0,0,0-3.72.80172l-1.06976-.85122a12.77411,12.77411,0,0,1-2.67562-17.07153,12.41848,12.41848,0,0,0,2.084-6.88705V95.32187A12.07414,12.07414,0,0,1,241.89761,83.2478h5.79556a12.07414,12.07414,0,0,1,12.07406,12.07407v5.23169a12.42551,12.42551,0,0,0,2.084,6.88705,12.77418,12.77418,0,0,1-2.67562,17.07153Z"/>
    <path class="cls-11" d="M249.52,120.72813a11.98615,11.98615,0,0,1-9.44917,0,7.48214,7.48214,0,0,0,.13644-1.98257l.01811-.04467a11.97787,11.97787,0,0,0,9.14007,0l.01811.04467A7.48019,7.48019,0,0,0,249.52,120.72813Z"/>
    <path class="cls-12" d="M253.14762,84.54721a1.25935,1.25935,0,0,1-.67929,2.37715q-.56924-.054-1.15307-.05434h-5.79555a12.07415,12.07415,0,0,0-12.07407,12.07407v1.46917c0,.86741-.6037.83939-.6037,1.5421,0,6.37777.02584,5.974-.06774,6.24918-.94721,2.78645-2.08471,3.18973-3.00753,6.239a12.76321,12.76321,0,0,0-.477,5.03114,1.2605,1.2605,0,0,1-2.42436.59175,12.76872,12.76872,0,0,1,.87417-12.62585,12.41845,12.41845,0,0,0,2.084-6.88705V95.32187A12.07414,12.07414,0,0,1,241.89749,83.2478H247.693a12.02283,12.02283,0,0,1,5.45458,1.29941Z"/>
    <path class="cls-13" d="M242.50385,115.66052a1.8438,1.8438,0,0,1-1.61913,3.28137,11.8772,11.8772,0,0,1-8.04266-11.2889v-5.69775a.96507.96507,0,0,1,1.04924-.9623c.46267.042.97075.0751,1.519.09188a1.84022,1.84022,0,0,1,1.77839,1.8425v2.79394a11.91088,11.91088,0,0,0,5.31513,9.93925Z"/>
    <path class="cls-14" d="M239.30084,125.72063a.76809.76809,0,0,1-.45447,1.37657,9.00194,9.00194,0,0,0-9.02283,9.00363v3.17065h-2.65629a.966.966,0,0,1-.96593-.96593v-4.74028a9.004,9.004,0,0,1,9.00363-9.00363,4.99644,4.99644,0,0,0,2.07433-.44795l.03018.06521Z"/>
    <path class="cls-15" d="M250.28981,125.72063a.76809.76809,0,0,0,.45447,1.37657,9.00194,9.00194,0,0,1,9.02283,9.00363v3.17065h2.65629a.966.966,0,0,0,.96593-.96593v-4.74028a9.004,9.004,0,0,0-9.00364-9.00363,4.99643,4.99643,0,0,1-2.07432-.44795l-.03018.06521Z"/>
  </g>
  <rect class="cls-16" x="100.71214" y="122.69625" width="78.88889" height="11.42714" rx="3.71357"/>
  <rect class="cls-16" x="80.04547" y="160.47403" width="61.47629" height="11.42714" rx="3.27821"/>
  <rect class="cls-16" x="80.04547" y="177.36292" width="75.03184" height="11.42714" rx="3.62165"/>
  <rect class="cls-16" x="80.04547" y="212.47403" width="118.80962" height="11.42714" rx="4.55732"/>
</svg>
